<?xml version="1.0" encoding="us-ascii" standalone="no"?><svg xmlns="http://www.w3.org/2000/svg" xmlns:xlink="http://www.w3.org/1999/xlink" contentStyleType="text/css" height="963px" preserveAspectRatio="none" style="width:1891px;height:963px;background:#FFFFFF;" version="1.1" viewBox="0 0 1891 963" width="1891px" zoomAndPan="magnify"><defs/><g><text fill="#000000" font-family="sans-serif" font-size="14" font-weight="bold" lengthAdjust="spacing" textLength="489" x="694" y="24.5332">Maintenance Deployment Diagram - &#1057;&#1080;&#1089;&#1090;&#1077;&#1084;&#1072; &#1091;&#1087;&#1088;&#1072;&#1074;&#1083;&#1077;&#1085;&#1080;&#1103; &#1072;&#1074;&#1090;&#1086;&#1087;&#1072;&#1088;&#1082;&#1086;&#1084;</text><!--cluster Development Environment--><g id="cluster_Development Environment"><path d="M1631.5,62.1094 L1820.5,62.1094 A3.75,3.75 0 0 1 1823,64.6094 L1830,85.7188 L1881.5,85.7188 A2.5,2.5 0 0 1 1884,88.2188 L1884,195.6094 A2.5,2.5 0 0 1 1881.5,198.1094 L1631.5,198.1094 A2.5,2.5 0 0 1 1629,195.6094 L1629,64.6094 A2.5,2.5 0 0 1 1631.5,62.1094 " fill="none" style="stroke:#000000;stroke-width:1.5;"/><line style="stroke:#000000;stroke-width:1.5;" x1="1629" x2="1830" y1="85.7188" y2="85.7188"/><text fill="#000000" font-family="sans-serif" font-size="14" font-weight="bold" lengthAdjust="spacing" textLength="188" x="1633" y="78.6426">Development Environment</text></g><!--cluster CI/CD Pipeline--><g id="cluster_CI/CD Pipeline"><path d="M847,124.1094 L947,124.1094 A3.75,3.75 0 0 1 949.5,126.6094 L956.5,147.7188 L1460.5,147.7188 A2.5,2.5 0 0 1 1463,150.2188 L1463,368.6094 A2.5,2.5 0 0 1 1460.5,371.1094 L847,371.1094 A2.5,2.5 0 0 1 844.5,368.6094 L844.5,126.6094 A2.5,2.5 0 0 1 847,124.1094 " fill="none" style="stroke:#000000;stroke-width:1.5;"/><line style="stroke:#000000;stroke-width:1.5;" x1="844.5" x2="956.5" y1="147.7188" y2="147.7188"/><text fill="#000000" font-family="sans-serif" font-size="14" font-weight="bold" lengthAdjust="spacing" textLength="99" x="848.5" y="140.6426">CI/CD Pipeline</text></g><!--cluster Test Environment--><g id="cluster_Test Environment"><rect fill="none" height="214" rx="2.5" ry="2.5" style="stroke:#181818;stroke-width:1.0;" width="621.5" x="24.5" y="152.1094"/><text fill="#000000" font-family="sans-serif" font-size="14" font-weight="bold" lengthAdjust="spacing" textLength="124" x="273.25" y="168.6426">Test Environment</text></g><!--cluster Production Environment--><g id="cluster_Production Environment"><rect fill="none" height="240" rx="2.5" ry="2.5" style="stroke:#181818;stroke-width:1.0;" width="234" x="25.5" y="717.1094"/><text fill="#000000" font-family="sans-serif" font-size="14" font-weight="bold" lengthAdjust="spacing" textLength="171" x="57" y="733.6426">Production Environment</text></g><!--cluster Monitoring & Observability--><g id="cluster_Monitoring &amp; Observability"><rect fill="none" height="249" rx="2.5" ry="2.5" style="stroke:#181818;stroke-width:1.0;" width="607" x="452" y="640.1094"/><text fill="#000000" font-family="sans-serif" font-size="14" font-weight="bold" lengthAdjust="spacing" textLength="188" x="661.5" y="656.6426">Monitoring &amp; Observability</text></g><!--entity developer_laptop--><g id="elem_developer_laptop"><polygon fill="#F1F1F1" points="1645,108.6094,1655,98.6094,1868,98.6094,1868,171.4375,1858,181.4375,1645,181.4375,1645,108.6094" style="stroke:#181818;stroke-width:0.5;"/><line style="stroke:#181818;stroke-width:0.5;" x1="1858" x2="1868" y1="108.6094" y2="98.6094"/><line style="stroke:#181818;stroke-width:0.5;" x1="1645" x2="1858" y1="108.6094" y2="108.6094"/><line style="stroke:#181818;stroke-width:0.5;" x1="1858" x2="1858" y1="108.6094" y2="181.4375"/><text fill="#000000" font-family="sans-serif" font-size="14" font-weight="bold" lengthAdjust="spacing" textLength="183" x="1660" y="133.1426">&#1050;&#1086;&#1084;&#1087;&#1100;&#1102;&#1090;&#1077;&#1088; &#1088;&#1072;&#1079;&#1088;&#1072;&#1073;&#1086;&#1090;&#1095;&#1080;&#1082;&#1072;</text><text fill="#000000" font-family="sans-serif" font-size="14" lengthAdjust="spacing" textLength="150" x="1660" y="150.752">&#1051;&#1086;&#1082;&#1072;&#1083;&#1100;&#1085;&#1072;&#1103; &#1088;&#1072;&#1079;&#1088;&#1072;&#1073;&#1086;&#1090;&#1082;&#1072;</text><text fill="#000000" font-family="sans-serif" font-size="14" lengthAdjust="spacing" textLength="104" x="1660" y="168.3613">&#1080; &#1090;&#1077;&#1089;&#1090;&#1080;&#1088;&#1086;&#1074;&#1072;&#1085;&#1080;&#1077;</text></g><!--entity teamcity--><g id="elem_teamcity"><polygon fill="#F1F1F1" points="860.5,281.6094,870.5,271.6094,1024.5,271.6094,1024.5,344.4375,1014.5,354.4375,860.5,354.4375,860.5,281.6094" style="stroke:#181818;stroke-width:0.5;"/><line style="stroke:#181818;stroke-width:0.5;" x1="1014.5" x2="1024.5" y1="281.6094" y2="271.6094"/><line style="stroke:#181818;stroke-width:0.5;" x1="860.5" x2="1014.5" y1="281.6094" y2="281.6094"/><line style="stroke:#181818;stroke-width:0.5;" x1="1014.5" x2="1014.5" y1="281.6094" y2="354.4375"/><text fill="#000000" font-family="sans-serif" font-size="14" font-weight="bold" lengthAdjust="spacing" textLength="63" x="875.5" y="306.1426">TeamCity</text><text fill="#000000" font-family="sans-serif" font-size="14" lengthAdjust="spacing" textLength="87" x="875.5" y="323.752">CI/CD &#1089;&#1077;&#1088;&#1074;&#1077;&#1088;</text><text fill="#000000" font-family="sans-serif" font-size="14" lengthAdjust="spacing" textLength="124" x="875.5" y="341.3613">&#1055;&#1072;&#1081;&#1087;&#1083;&#1072;&#1081;&#1085;&#1099; &#1089;&#1073;&#1086;&#1088;&#1082;&#1080;</text></g><!--entity harbor--><g id="elem_harbor"><polygon fill="#F1F1F1" points="1224,281.6094,1234,271.6094,1447,271.6094,1447,344.4375,1437,354.4375,1224,354.4375,1224,281.6094" style="stroke:#181818;stroke-width:0.5;"/><line style="stroke:#181818;stroke-width:0.5;" x1="1437" x2="1447" y1="281.6094" y2="271.6094"/><line style="stroke:#181818;stroke-width:0.5;" x1="1224" x2="1437" y1="281.6094" y2="281.6094"/><line style="stroke:#181818;stroke-width:0.5;" x1="1437" x2="1437" y1="281.6094" y2="354.4375"/><text fill="#000000" font-family="sans-serif" font-size="14" font-weight="bold" lengthAdjust="spacing" textLength="110" x="1239" y="306.1426">Harbor Registry</text><text fill="#000000" font-family="sans-serif" font-size="14" lengthAdjust="spacing" textLength="101" x="1239" y="323.752">Docker Registry</text><text fill="#000000" font-family="sans-serif" font-size="14" lengthAdjust="spacing" textLength="183" x="1239" y="341.3613">&#1057;&#1082;&#1072;&#1085;&#1080;&#1088;&#1086;&#1074;&#1072;&#1085;&#1080;&#1077; &#1091;&#1103;&#1079;&#1074;&#1080;&#1084;&#1086;&#1089;&#1090;&#1077;&#1081;</text></g><!--entity test_envs--><g id="elem_test_envs"><polygon fill="#F1F1F1" points="40.5,252.1094,50.5,242.1094,244.5,242.1094,244.5,340.5469,234.5,350.5469,40.5,350.5469,40.5,252.1094" style="stroke:#181818;stroke-width:0.5;"/><line style="stroke:#181818;stroke-width:0.5;" x1="234.5" x2="244.5" y1="252.1094" y2="242.1094"/><line style="stroke:#181818;stroke-width:0.5;" x1="40.5" x2="234.5" y1="252.1094" y2="252.1094"/><line style="stroke:#181818;stroke-width:0.5;" x1="234.5" x2="234.5" y1="252.1094" y2="350.5469"/><text fill="#000000" font-family="sans-serif" font-size="14" font-weight="bold" lengthAdjust="spacing" textLength="150" x="55.5" y="276.6426">&#1058;&#1077;&#1089;&#1090;&#1086;&#1074;&#1099;&#1077; &#1086;&#1082;&#1088;&#1091;&#1078;&#1077;&#1085;&#1080;&#1103;</text><line style="stroke:#181818;stroke-width:1.0;" x1="40.5" x2="234.5" y1="279.7188" y2="279.7188"/><line style="stroke:#181818;stroke-width:1.0;" x1="234.5" x2="244.5" y1="279.7188" y2="269.7188"/><text fill="#000000" font-family="sans-serif" font-size="14" lengthAdjust="spacing" textLength="156" x="55.5" y="298.252">&#8226; &#1056;&#1091;&#1095;&#1085;&#1086;&#1077; &#1090;&#1077;&#1089;&#1090;&#1080;&#1088;&#1086;&#1074;&#1072;&#1085;&#1080;&#1077;</text><text fill="#000000" font-family="sans-serif" font-size="14" lengthAdjust="spacing" textLength="164" x="55.5" y="315.8613">&#8226; &#1040;&#1074;&#1090;&#1086;&#1084;&#1072;&#1090;&#1080;&#1095;&#1077;&#1089;&#1082;&#1080;&#1077; &#1090;&#1077;&#1089;&#1090;&#1099;</text><text fill="#000000" font-family="sans-serif" font-size="14" lengthAdjust="spacing" textLength="131" x="55.5" y="333.4707">&#8226; &#1057;&#1082;&#1072;&#1085;&#1080;&#1088;&#1086;&#1074;&#1072;&#1085;&#1080;&#1077; &#1048;&#1041;</text></g><!--entity qa_engineers--><g id="elem_qa_engineers"><polygon fill="#F1F1F1" points="469.5,312.1094,479.5,302.1094,607.5,302.1094,607.5,339.7188,597.5,349.7188,469.5,349.7188,469.5,312.1094" style="stroke:#181818;stroke-width:0.5;"/><line style="stroke:#181818;stroke-width:0.5;" x1="597.5" x2="607.5" y1="312.1094" y2="302.1094"/><line style="stroke:#181818;stroke-width:0.5;" x1="469.5" x2="597.5" y1="312.1094" y2="312.1094"/><line style="stroke:#181818;stroke-width:0.5;" x1="597.5" x2="597.5" y1="312.1094" y2="349.7188"/><text fill="#000000" font-family="sans-serif" font-size="14" font-weight="bold" lengthAdjust="spacing" textLength="98" x="484.5" y="336.6426">QA &#1080;&#1085;&#1078;&#1077;&#1085;&#1077;&#1088;&#1099;</text></g><!--entity auto_tests--><g id="elem_auto_tests"><polygon fill="#F1F1F1" points="447,198.6094,457,188.6094,630,188.6094,630,261.4375,620,271.4375,447,271.4375,447,198.6094" style="stroke:#181818;stroke-width:0.5;"/><line style="stroke:#181818;stroke-width:0.5;" x1="620" x2="630" y1="198.6094" y2="188.6094"/><line style="stroke:#181818;stroke-width:0.5;" x1="447" x2="620" y1="198.6094" y2="198.6094"/><line style="stroke:#181818;stroke-width:0.5;" x1="620" x2="620" y1="198.6094" y2="271.4375"/><text fill="#000000" font-family="sans-serif" font-size="14" font-weight="bold" lengthAdjust="spacing" textLength="74" x="462" y="223.1426">&#1040;&#1074;&#1090;&#1086;&#1090;&#1077;&#1089;&#1090;&#1099;</text><text fill="#000000" font-family="sans-serif" font-size="14" lengthAdjust="spacing" textLength="143" x="462" y="240.752">Unit, &#1080;&#1085;&#1090;&#1077;&#1075;&#1088;&#1072;&#1094;&#1080;&#1086;&#1085;&#1085;&#1099;&#1077;</text><text fill="#000000" font-family="sans-serif" font-size="14" lengthAdjust="spacing" textLength="58" x="462" y="258.3613">&#1051;&#1080;&#1085;&#1090;&#1077;&#1088;&#1099;</text></g><!--entity prod_env--><g id="elem_prod_env"><polygon fill="#F1F1F1" points="41.5,825.1094,51.5,815.1094,243.5,815.1094,243.5,931.1563,233.5,941.1563,41.5,941.1563,41.5,825.1094" style="stroke:#181818;stroke-width:0.5;"/><line style="stroke:#181818;stroke-width:0.5;" x1="233.5" x2="243.5" y1="825.1094" y2="815.1094"/><line style="stroke:#181818;stroke-width:0.5;" x1="41.5" x2="233.5" y1="825.1094" y2="825.1094"/><line style="stroke:#181818;stroke-width:0.5;" x1="233.5" x2="233.5" y1="825.1094" y2="941.1563"/><text fill="#000000" font-family="sans-serif" font-size="14" font-weight="bold" lengthAdjust="spacing" textLength="77" x="56.5" y="849.6426">Production</text><text fill="#000000" font-family="sans-serif" font-size="14" lengthAdjust="spacing" textLength="122" x="56.5" y="867.252">Kubernetes Cluster</text><line style="stroke:#181818;stroke-width:1.0;" x1="41.5" x2="233.5" y1="870.3281" y2="870.3281"/><line style="stroke:#181818;stroke-width:1.0;" x1="233.5" x2="243.5" y1="870.3281" y2="860.3281"/><text fill="#000000" font-family="sans-serif" font-size="14" lengthAdjust="spacing" textLength="133" x="56.5" y="888.8613">&#8226; Rolling deployment</text><text fill="#000000" font-family="sans-serif" font-size="14" lengthAdjust="spacing" textLength="162" x="56.5" y="906.4707">&#8226; Blue/Green &#1075;&#1086;&#1090;&#1086;&#1074;&#1085;&#1086;&#1089;&#1090;&#1100;</text><text fill="#000000" font-family="sans-serif" font-size="14" lengthAdjust="spacing" textLength="161" x="56.5" y="924.0801">&#8226; &#1040;&#1074;&#1090;&#1086;&#1084;&#1072;&#1090;&#1080;&#1095;&#1077;&#1089;&#1082;&#1080;&#1081; &#1086;&#1090;&#1082;&#1072;&#1090;</text></g><!--entity prometheus--><g id="elem_prometheus"><polygon fill="#F1F1F1" points="476,686.6094,486,676.6094,601,676.6094,601,749.4375,591,759.4375,476,759.4375,476,686.6094" style="stroke:#181818;stroke-width:0.5;"/><line style="stroke:#181818;stroke-width:0.5;" x1="591" x2="601" y1="686.6094" y2="676.6094"/><line style="stroke:#181818;stroke-width:0.5;" x1="476" x2="591" y1="686.6094" y2="686.6094"/><line style="stroke:#181818;stroke-width:0.5;" x1="591" x2="591" y1="686.6094" y2="759.4375"/><text fill="#000000" font-family="sans-serif" font-size="14" font-weight="bold" lengthAdjust="spacing" textLength="85" x="491" y="711.1426">Prometheus</text><text fill="#000000" font-family="sans-serif" font-size="14" lengthAdjust="spacing" textLength="85" x="491" y="728.752">&#1057;&#1073;&#1086;&#1088; &#1084;&#1077;&#1090;&#1088;&#1080;&#1082;</text><text fill="#000000" font-family="sans-serif" font-size="14" lengthAdjust="spacing" textLength="79" x="491" y="746.3613">&#1052;&#1086;&#1085;&#1080;&#1090;&#1086;&#1088;&#1080;&#1085;&#1075;</text></g><!--entity grafana--><g id="elem_grafana"><polygon fill="#F1F1F1" points="850.5,799.6094,860.5,789.6094,1034.5,789.6094,1034.5,862.4375,1024.5,872.4375,850.5,872.4375,850.5,799.6094" style="stroke:#181818;stroke-width:0.5;"/><line style="stroke:#181818;stroke-width:0.5;" x1="1024.5" x2="1034.5" y1="799.6094" y2="789.6094"/><line style="stroke:#181818;stroke-width:0.5;" x1="850.5" x2="1024.5" y1="799.6094" y2="799.6094"/><line style="stroke:#181818;stroke-width:0.5;" x1="1024.5" x2="1024.5" y1="799.6094" y2="872.4375"/><text fill="#000000" font-family="sans-serif" font-size="14" font-weight="bold" lengthAdjust="spacing" textLength="55" x="865.5" y="824.1426">Grafana</text><text fill="#000000" font-family="sans-serif" font-size="14" lengthAdjust="spacing" textLength="70" x="865.5" y="841.752">&#1044;&#1072;&#1096;&#1073;&#1086;&#1088;&#1076;&#1099;</text><text fill="#000000" font-family="sans-serif" font-size="14" lengthAdjust="spacing" textLength="144" x="865.5" y="859.3613">&#1042;&#1080;&#1079;&#1091;&#1072;&#1083;&#1080;&#1079;&#1072;&#1094;&#1080;&#1103; &#1084;&#1077;&#1090;&#1088;&#1080;&#1082;</text></g><!--entity kibana--><g id="elem_kibana"><polygon fill="#F1F1F1" points="468,799.6094,478,789.6094,609,789.6094,609,862.4375,599,872.4375,468,872.4375,468,799.6094" style="stroke:#181818;stroke-width:0.5;"/><line style="stroke:#181818;stroke-width:0.5;" x1="599" x2="609" y1="799.6094" y2="789.6094"/><line style="stroke:#181818;stroke-width:0.5;" x1="468" x2="599" y1="799.6094" y2="799.6094"/><line style="stroke:#181818;stroke-width:0.5;" x1="599" x2="599" y1="799.6094" y2="872.4375"/><text fill="#000000" font-family="sans-serif" font-size="14" font-weight="bold" lengthAdjust="spacing" textLength="48" x="483" y="824.1426">Kibana</text><text fill="#000000" font-family="sans-serif" font-size="14" lengthAdjust="spacing" textLength="87" x="483" y="841.752">&#1040;&#1085;&#1072;&#1083;&#1080;&#1079; &#1083;&#1086;&#1075;&#1086;&#1074;</text><text fill="#000000" font-family="sans-serif" font-size="14" lengthAdjust="spacing" textLength="101" x="483" y="859.3613">&#1055;&#1086;&#1080;&#1089;&#1082; &#1087;&#1086; &#1083;&#1086;&#1075;&#1072;&#1084;</text></g><!--entity alerting--><g id="elem_alerting"><polygon fill="#F1F1F1" points="842,686.6094,852,676.6094,1043,676.6094,1043,749.4375,1033,759.4375,842,759.4375,842,686.6094" style="stroke:#181818;stroke-width:0.5;"/><line style="stroke:#181818;stroke-width:0.5;" x1="1033" x2="1043" y1="686.6094" y2="676.6094"/><line style="stroke:#181818;stroke-width:0.5;" x1="842" x2="1033" y1="686.6094" y2="686.6094"/><line style="stroke:#181818;stroke-width:0.5;" x1="1033" x2="1033" y1="686.6094" y2="759.4375"/><text fill="#000000" font-family="sans-serif" font-size="14" font-weight="bold" lengthAdjust="spacing" textLength="109" x="857" y="711.1426">Alerting System</text><text fill="#000000" font-family="sans-serif" font-size="14" lengthAdjust="spacing" textLength="161" x="857" y="728.752">&#1040;&#1074;&#1090;&#1086;&#1084;&#1072;&#1090;&#1080;&#1095;&#1077;&#1089;&#1082;&#1080;&#1077; &#1072;&#1083;&#1077;&#1088;&#1090;&#1099;</text><text fill="#000000" font-family="sans-serif" font-size="14" lengthAdjust="spacing" textLength="60" x="857" y="746.3613">Telegram</text></g><!--entity gitlab_node--><g id="elem_gitlab_node"><polygon fill="#F1F1F1" points="438.5,54.6094,448.5,44.6094,638.5,44.6094,638.5,117.4375,628.5,127.4375,438.5,127.4375,438.5,54.6094" style="stroke:#181818;stroke-width:0.5;"/><line style="stroke:#181818;stroke-width:0.5;" x1="628.5" x2="638.5" y1="54.6094" y2="44.6094"/><line style="stroke:#181818;stroke-width:0.5;" x1="438.5" x2="628.5" y1="54.6094" y2="54.6094"/><line style="stroke:#181818;stroke-width:0.5;" x1="628.5" x2="628.5" y1="54.6094" y2="127.4375"/><text fill="#000000" font-family="sans-serif" font-size="14" font-weight="bold" lengthAdjust="spacing" textLength="45" x="453.5" y="79.1426">GitLab</text><text fill="#000000" font-family="sans-serif" font-size="14" lengthAdjust="spacing" textLength="160" x="453.5" y="96.752">&#1061;&#1088;&#1072;&#1085;&#1077;&#1085;&#1080;&#1077; &#1088;&#1077;&#1087;&#1086;&#1079;&#1080;&#1090;&#1086;&#1088;&#1080;&#1077;&#1074;</text><text fill="#000000" font-family="sans-serif" font-size="14" lengthAdjust="spacing" textLength="82" x="453.5" y="114.3613">&#1042;&#1077;&#1088;&#1089;&#1080;&#1080; &#1082;&#1086;&#1076;&#1072;</text></g><!--entity stage_env--><g id="elem_stage_env"><polygon fill="#F1F1F1" points="30.5,612.6094,40.5,602.6094,254.5,602.6094,254.5,683.4375,244.5,693.4375,30.5,693.4375,30.5,612.6094" style="stroke:#181818;stroke-width:0.5;"/><line style="stroke:#181818;stroke-width:0.5;" x1="244.5" x2="254.5" y1="612.6094" y2="602.6094"/><line style="stroke:#181818;stroke-width:0.5;" x1="30.5" x2="244.5" y1="612.6094" y2="612.6094"/><line style="stroke:#181818;stroke-width:0.5;" x1="244.5" x2="244.5" y1="612.6094" y2="693.4375"/><text fill="#000000" font-family="sans-serif" font-size="14" font-weight="bold" lengthAdjust="spacing" textLength="121" x="45.5" y="637.1426">Stage &#1086;&#1082;&#1088;&#1091;&#1078;&#1077;&#1085;&#1080;&#1077;</text><line style="stroke:#181818;stroke-width:1.0;" x1="30.5" x2="244.5" y1="640.2188" y2="640.2188"/><line style="stroke:#181818;stroke-width:1.0;" x1="244.5" x2="254.5" y1="640.2188" y2="630.2188"/><text fill="#000000" font-family="sans-serif" font-size="14" lengthAdjust="spacing" textLength="184" x="45.5" y="658.752">&#8226; &#1060;&#1080;&#1085;&#1072;&#1083;&#1100;&#1085;&#1086;&#1077; &#1090;&#1077;&#1089;&#1090;&#1080;&#1088;&#1086;&#1074;&#1072;&#1085;&#1080;&#1077;</text><text fill="#000000" font-family="sans-serif" font-size="14" lengthAdjust="spacing" textLength="173" x="45.5" y="676.3613">&#8226; &#1055;&#1088;&#1086;&#1074;&#1077;&#1088;&#1082;&#1072; &#1082;&#1086;&#1085;&#1092;&#1080;&#1075;&#1091;&#1088;&#1072;&#1094;&#1080;&#1081;</text></g><!--link developer_laptop to gitlab_node--><g id="link_developer_laptop_gitlab_node"><path codeLine="98" d="M1644.96,135.1994 C1409.87,124.7594 869.4741,100.7656 644.7441,90.7856 " fill="none" id="developer_laptop-to-gitlab_node" style="stroke:#181818;stroke-width:1.0;"/><polygon fill="#181818" points="638.75,90.5194,647.5637,94.9147,643.7451,90.7412,647.9186,86.9226,638.75,90.5194" style="stroke:#181818;stroke-width:1.0;"/><text fill="#000000" font-family="sans-serif" font-size="13" lengthAdjust="spacing" textLength="106" x="1086.5" y="106.6045">git commit &amp; push</text></g><!--link gitlab_node to teamcity--><g id="link_gitlab_node_teamcity"><path codeLine="99" d="M613.23,127.7494 C685.65,168.6394 790.2955,227.7289 862.6655,268.5989 " fill="none" id="gitlab_node-to-teamcity" style="stroke:#181818;stroke-width:1.0;"/><polygon fill="#181818" points="867.89,271.5494,862.0203,263.6407,863.5363,269.0907,858.0864,270.6067,867.89,271.5494" style="stroke:#181818;stroke-width:1.0;"/><text fill="#000000" font-family="sans-serif" font-size="13" lengthAdjust="spacing" textLength="85" x="699.5" y="156.6045">&#1058;&#1088;&#1080;&#1075;&#1075;&#1077;&#1088; &#1073;&#1080;&#1083;&#1076;&#1072;</text></g><!--link teamcity to teamcity--><g id="link_teamcity_teamcity"><path codeLine="101" d="M905.93,271.6094 C904.09,255.2594 916.28,241.6094 942.5,241.6094 C968.72,241.6094 981.581,249.297 979.741,265.647 " fill="none" id="teamcity-to-teamcity" style="stroke:#181818;stroke-width:1.0;"/><polygon fill="#181818" points="979.07,271.6094,984.0514,263.1132,979.6292,266.6407,976.1016,262.2185,979.07,271.6094" style="stroke:#181818;stroke-width:1.0;"/><text fill="#000000" font-family="sans-serif" font-size="13" lengthAdjust="spacing" textLength="90" x="897.5" y="168.1045">1. &#1057;&#1073;&#1086;&#1088;&#1082;&#1072; &#1082;&#1086;&#1076;&#1072;</text><text fill="#000000" font-family="sans-serif" font-size="13" lengthAdjust="spacing" textLength="126" x="879.5" y="184.4561">2. &#1047;&#1072;&#1087;&#1091;&#1089;&#1082; Unit &#1090;&#1077;&#1089;&#1090;&#1086;&#1074;</text><text fill="#000000" font-family="sans-serif" font-size="13" lengthAdjust="spacing" textLength="115" x="885" y="200.8076">3. &#1055;&#1088;&#1086;&#1075;&#1086;&#1085; &#1083;&#1080;&#1085;&#1090;&#1077;&#1088;&#1086;&#1074;</text><text fill="#000000" font-family="sans-serif" font-size="13" lengthAdjust="spacing" textLength="155" x="865" y="217.1592">4. &#1057;&#1073;&#1086;&#1088;&#1082;&#1072; Docker &#1086;&#1073;&#1088;&#1072;&#1079;&#1086;&#1074;</text><text fill="#000000" font-family="sans-serif" font-size="13" lengthAdjust="spacing" textLength="150" x="867.5" y="233.5107">5. &#1048;&#1085;&#1090;&#1077;&#1075;&#1088;&#1072;&#1094;&#1080;&#1086;&#1085;&#1085;&#1099;&#1077; &#1090;&#1077;&#1089;&#1090;&#1099;</text></g><!--link teamcity to harbor--><g id="link_teamcity_harbor"><path codeLine="102" d="M1024.52,313.1094 C1082.23,313.1094 1154.49,313.1094 1217.93,313.1094 " fill="none" id="teamcity-to-harbor" style="stroke:#181818;stroke-width:1.0;"/><polygon fill="#181818" points="1223.93,313.1094,1214.93,309.1094,1218.93,313.1094,1214.93,317.1094,1223.93,313.1094" style="stroke:#181818;stroke-width:1.0;"/><text fill="#000000" font-family="sans-serif" font-size="13" lengthAdjust="spacing" textLength="127" x="1076" y="293.6045">Push Docker &#1086;&#1073;&#1088;&#1072;&#1079;&#1086;&#1074;</text><text fill="#000000" font-family="sans-serif" font-size="13" lengthAdjust="spacing" textLength="97" x="1091" y="309.9561">&#1089; &#1090;&#1077;&#1075;&#1072;&#1084;&#1080; &#1074;&#1077;&#1088;&#1089;&#1080;&#1081;</text></g><!--link harbor to test_envs--><g id="link_harbor_test_envs"><path codeLine="104" d="M1223.71,341.6594 C1175.86,352.5894 1119.03,363.7194 1067,369.1094 C789.15,397.8794 715.83,398.5194 438.5,365.1094 C373.09,357.2294 306.8694,342.078 250.3694,327.088 " fill="none" id="harbor-to-test_envs" style="stroke:#181818;stroke-width:1.0;"/><polygon fill="#181818" points="244.57,325.5494,252.2433,331.7236,249.4028,326.8316,254.2948,323.9911,244.57,325.5494" style="stroke:#181818;stroke-width:1.0;"/><text fill="#000000" font-family="sans-serif" font-size="13" lengthAdjust="spacing" textLength="92" x="696" y="368.6045">Deploy &#1086;&#1073;&#1088;&#1072;&#1079;&#1086;&#1074;</text><text fill="#000000" font-family="sans-serif" font-size="13" lengthAdjust="spacing" textLength="114" x="685" y="384.9561">&#1085;&#1072; &#1090;&#1077;&#1089;&#1090;&#1086;&#1074;&#1099;&#1077; &#1089;&#1088;&#1077;&#1076;&#1099;</text></g><!--link test_envs to qa_engineers--><g id="link_test_envs_qa_engineers"><path codeLine="105" d="M244.75,304.6594 C255.13,305.4994 265.53,306.3294 275.5,307.1094 C341.31,312.2394 410.4849,317.2172 463.3649,320.9472 " fill="none" id="test_envs-to-qa_engineers" style="stroke:#181818;stroke-width:1.0;"/><polygon fill="#181818" points="469.35,321.3694,460.6538,316.746,464.3624,321.0176,460.0909,324.7262,469.35,321.3694" style="stroke:#181818;stroke-width:1.0;"/><text fill="#000000" font-family="sans-serif" font-size="13" lengthAdjust="spacing" textLength="128" x="283" y="287.6045">&#1056;&#1091;&#1095;&#1085;&#1086;&#1077; &#1090;&#1077;&#1089;&#1090;&#1080;&#1088;&#1086;&#1074;&#1072;&#1085;&#1080;&#1077;</text><text fill="#000000" font-family="sans-serif" font-size="13" lengthAdjust="spacing" textLength="75" x="309.5" y="303.9561">&#1080; &#1074;&#1072;&#1083;&#1080;&#1076;&#1072;&#1094;&#1080;&#1103;</text></g><!--link test_envs to auto_tests--><g id="link_test_envs_auto_tests"><path codeLine="106" d="M244.67,275.7194 C255.07,273.7594 265.49,271.8594 275.5,270.1094 C332.27,260.1894 390.2736,251.2704 440.7736,243.8604 " fill="none" id="test_envs-to-auto_tests" style="stroke:#181818;stroke-width:1.0;"/><polygon fill="#181818" points="446.71,242.9894,437.2246,240.3384,441.763,243.7153,438.3861,248.2536,446.71,242.9894" style="stroke:#181818;stroke-width:1.0;"/><text fill="#000000" font-family="sans-serif" font-size="13" lengthAdjust="spacing" textLength="141" x="276.5" y="228.6045">&#1047;&#1072;&#1087;&#1091;&#1089;&#1082; &#1072;&#1074;&#1090;&#1086;&#1084;&#1072;&#1090;&#1080;&#1095;&#1077;&#1089;&#1082;&#1080;&#1093;</text><text fill="#000000" font-family="sans-serif" font-size="13" lengthAdjust="spacing" textLength="133" x="280.5" y="244.9561">&#1088;&#1077;&#1075;&#1088;&#1077;&#1089;&#1089;&#1080;&#1086;&#1085;&#1085;&#1099;&#1093; &#1090;&#1077;&#1089;&#1090;&#1086;&#1074;</text></g><!--link test_envs to stage_env--><g id="link_test_envs_stage_env"><path codeLine="108" d="M142.5,350.3394 C142.5,419.4594 142.5,531.7194 142.5,596.4494 " fill="none" id="test_envs-to-stage_env" style="stroke:#181818;stroke-width:1.0;"/><polygon fill="#181818" points="142.5,602.4494,146.5,593.4494,142.5,597.4494,138.5,593.4494,142.5,602.4494" style="stroke:#181818;stroke-width:1.0;"/><text fill="#000000" font-family="sans-serif" font-size="13" lengthAdjust="spacing" textLength="247" x="7" y="481.8545">&#1055;&#1088;&#1086;&#1076;&#1074;&#1080;&#1078;&#1077;&#1085;&#1080;&#1077; &#1091;&#1089;&#1087;&#1077;&#1096;&#1085;&#1099;&#1093; &#1089;&#1073;&#1086;&#1088;&#1086;&#1082; &#1085;&#1072; stage</text></g><!--link stage_env to stage_env--><g id="link_stage_env_stage_env"><path codeLine="109" d="M104.29,602.4094 C103.47,585.9894 116.2,572.6094 142.5,572.6094 C168.8,572.6094 181.8293,579.9968 181.0093,596.4168 " fill="none" id="stage_env-to-stage_env" style="stroke:#181818;stroke-width:1.0;"/><polygon fill="#181818" points="180.71,602.4094,185.1539,593.6201,180.9594,597.4156,177.1639,593.2211,180.71,602.4094" style="stroke:#181818;stroke-width:1.0;"/><text fill="#000000" font-family="sans-serif" font-size="13" lengthAdjust="spacing" textLength="4" x="140.5" y="417.1045">&#160;</text><text fill="#000000" font-family="sans-serif" font-size="13" lengthAdjust="spacing" textLength="4" x="140.5" y="433.4561">&#160;</text><text fill="#000000" font-family="sans-serif" font-size="13" lengthAdjust="spacing" textLength="4" x="140.5" y="449.8076">&#160;</text><text fill="#000000" font-family="sans-serif" font-size="13" lengthAdjust="spacing" textLength="4" x="140.5" y="466.1592">&#160;</text><text fill="#000000" font-family="sans-serif" font-size="13" lengthAdjust="spacing" textLength="4" x="140.5" y="482.5107">&#160;</text><text fill="#000000" font-family="sans-serif" font-size="13" lengthAdjust="spacing" textLength="4" x="140.5" y="498.8623">&#160;</text><text fill="#000000" font-family="sans-serif" font-size="13" lengthAdjust="spacing" textLength="132" x="76.5" y="515.2139">&#1060;&#1080;&#1085;&#1072;&#1083;&#1100;&#1085;&#1099;&#1077; &#1087;&#1088;&#1086;&#1074;&#1077;&#1088;&#1082;&#1080;:</text><text fill="#000000" font-family="sans-serif" font-size="13" lengthAdjust="spacing" textLength="97" x="94" y="531.5654">&#8226; &#1050;&#1086;&#1085;&#1092;&#1080;&#1075;&#1091;&#1088;&#1072;&#1094;&#1080;&#1080;</text><text fill="#000000" font-family="sans-serif" font-size="13" lengthAdjust="spacing" textLength="80" x="102.5" y="547.917">&#8226; &#1048;&#1085;&#1090;&#1077;&#1075;&#1088;&#1072;&#1094;&#1080;&#1080;</text><text fill="#000000" font-family="sans-serif" font-size="13" lengthAdjust="spacing" textLength="136" x="74.5" y="564.2686">&#8226; &#1055;&#1088;&#1086;&#1080;&#1079;&#1074;&#1086;&#1076;&#1080;&#1090;&#1077;&#1083;&#1100;&#1085;&#1086;&#1089;&#1090;&#1100;</text></g><!--link stage_env to prod_env--><g id="link_stage_env_prod_env"><path codeLine="111" d="M142.5,693.6194 C142.5,728.3194 142.5,770.5194 142.5,808.9594 " fill="none" id="stage_env-to-prod_env" style="stroke:#181818;stroke-width:1.0;"/><polygon fill="#181818" points="142.5,814.9594,146.5,805.9594,142.5,809.9594,138.5,805.9594,142.5,814.9594" style="stroke:#181818;stroke-width:1.0;"/><text fill="#000000" font-family="sans-serif" font-size="13" lengthAdjust="spacing" textLength="216" x="22.5" y="759.8545">Rolling deployment &#1087;&#1086;&#1101;&#1090;&#1072;&#1087;&#1085;&#1099;&#1081; rollout</text></g><!--link test_envs to prometheus--><g id="link_test_envs_prometheus"><path codeLine="113" d="M229.6,350.2194 C244.23,362.9594 257.8,377.6894 267.5,394.1094 C278.5,412.7294 265.85,422.7494 275.5,442.1094 C324.56,540.5694 415.9431,623.9533 477.1231,672.8533 " fill="none" id="test_envs-to-prometheus" style="stroke:#181818;stroke-width:1.0;"/><polygon fill="#181818" points="481.81,676.5994,477.2771,667.8556,477.9043,673.4776,472.2823,674.1048,481.81,676.5994" style="stroke:#181818;stroke-width:1.0;"/><text fill="#000000" font-family="sans-serif" font-size="13" lengthAdjust="spacing" textLength="93" x="300.5" y="438.6045">&#1069;&#1082;&#1089;&#1087;&#1086;&#1088;&#1090; &#1084;&#1077;&#1090;&#1088;&#1080;&#1082;</text></g><!--link stage_env to prometheus--><g id="link_stage_env_prometheus"><path codeLine="114" d="M254.56,667.8394 C326.25,680.5794 410.9125,695.6196 470.0025,706.1196 " fill="none" id="stage_env-to-prometheus" style="stroke:#181818;stroke-width:1.0;"/><polygon fill="#181818" points="475.91,707.1694,467.7486,701.6565,470.9871,706.2946,466.349,709.5331,475.91,707.1694" style="stroke:#181818;stroke-width:1.0;"/><text fill="#000000" font-family="sans-serif" font-size="13" lengthAdjust="spacing" textLength="93" x="300.5" y="669.6045">&#1069;&#1082;&#1089;&#1087;&#1086;&#1088;&#1090; &#1084;&#1077;&#1090;&#1088;&#1080;&#1082;</text></g><!--link prod_env to prometheus--><g id="link_prod_env_prometheus"><path codeLine="115" d="M243.6,822.9494 C254.26,817.6994 265.03,812.6494 275.5,808.1094 C342.46,779.0694 416.3657,754.595 470.1157,738.045 " fill="none" id="prod_env-to-prometheus" style="stroke:#181818;stroke-width:1.0;"/><polygon fill="#181818" points="475.85,736.2794,466.0714,735.1049,471.0714,737.7507,468.4256,742.7507,475.85,736.2794" style="stroke:#181818;stroke-width:1.0;"/><text fill="#000000" font-family="sans-serif" font-size="13" lengthAdjust="spacing" textLength="93" x="300.5" y="736.6045">&#1069;&#1082;&#1089;&#1087;&#1086;&#1088;&#1090; &#1084;&#1077;&#1090;&#1088;&#1080;&#1082;</text><text fill="#000000" font-family="sans-serif" font-size="13" lengthAdjust="spacing" textLength="72" x="311" y="752.9561">&#1080; &#1089;&#1086;&#1089;&#1090;&#1086;&#1103;&#1085;&#1080;&#1103;</text></g><!--link prometheus to grafana--><g id="link_prometheus_grafana"><path codeLine="117" d="M601.43,735.5194 C667.94,754.2194 768.5339,782.4857 844.5939,803.8657 " fill="none" id="prometheus-to-grafana" style="stroke:#181818;stroke-width:1.0;"/><polygon fill="#181818" points="850.37,805.4894,842.7882,799.2032,845.5565,804.1363,840.6234,806.9047,850.37,805.4894" style="stroke:#181818;stroke-width:1.0;"/><text fill="#000000" font-family="sans-serif" font-size="13" lengthAdjust="spacing" textLength="158" x="663" y="751.6045">&#1044;&#1072;&#1085;&#1085;&#1099;&#1077; &#1076;&#1083;&#1103; &#1074;&#1080;&#1079;&#1091;&#1072;&#1083;&#1080;&#1079;&#1072;&#1094;&#1080;&#1080;</text></g><!--link prod_env to kibana--><g id="link_prod_env_kibana"><path codeLine="118" d="M243.69,866.1594 C313.79,857.7994 399.7122,847.55 461.9222,840.13 " fill="none" id="prod_env-to-kibana" style="stroke:#181818;stroke-width:1.0;"/><polygon fill="#181818" points="467.88,839.4194,458.4696,836.5134,462.9152,840.0115,459.4171,844.4571,467.88,839.4194" style="stroke:#181818;stroke-width:1.0;"/><text fill="#000000" font-family="sans-serif" font-size="13" lengthAdjust="spacing" textLength="93" x="300.5" y="827.6045">&#1054;&#1090;&#1087;&#1088;&#1072;&#1074;&#1082;&#1072; &#1083;&#1086;&#1075;&#1086;&#1074;</text><text fill="#000000" font-family="sans-serif" font-size="13" lengthAdjust="spacing" textLength="72" x="311" y="843.9561">&#1087;&#1088;&#1080;&#1083;&#1086;&#1078;&#1077;&#1085;&#1080;&#1081;</text></g><!--link prometheus to alerting--><g id="link_prometheus_alerting"><path codeLine="119" d="M601.43,718.1094 C665.52,718.1094 760.61,718.1094 835.94,718.1094 " fill="none" id="prometheus-to-alerting" style="stroke:#181818;stroke-width:1.0;"/><polygon fill="#181818" points="841.94,718.1094,832.94,714.1094,836.94,718.1094,832.94,722.1094,841.94,718.1094" style="stroke:#181818;stroke-width:1.0;"/><text fill="#000000" font-family="sans-serif" font-size="13" lengthAdjust="spacing" textLength="105" x="689.5" y="698.6045">&#1058;&#1088;&#1080;&#1075;&#1075;&#1077;&#1088;&#1099; &#1072;&#1083;&#1077;&#1088;&#1090;&#1086;&#1074;</text><text fill="#000000" font-family="sans-serif" font-size="13" lengthAdjust="spacing" textLength="75" x="704.5" y="714.9561">&#1087;&#1086; &#1084;&#1077;&#1090;&#1088;&#1080;&#1082;&#1072;&#1084;</text></g><!--link alerting to teamcity--><g id="link_alerting_teamcity"><path codeLine="121" d="M942.5,676.2894 C942.5,598.4794 942.5,438.3394 942.5,360.6994 " fill="none" id="alerting-to-teamcity" style="stroke:#181818;stroke-width:1.0;"/><polygon fill="#181818" points="942.5,354.6994,938.5,363.6994,942.5,359.6994,946.5,363.6994,942.5,354.6994" style="stroke:#181818;stroke-width:1.0;"/><text fill="#000000" font-family="sans-serif" font-size="13" lengthAdjust="spacing" textLength="83" x="881" y="513.1045">&#1040;&#1074;&#1090;&#1086;&#1086;&#1090;&#1082;&#1072;&#1090; &#1087;&#1088;&#1080;</text><text fill="#000000" font-family="sans-serif" font-size="13" lengthAdjust="spacing" textLength="124" x="860.5" y="529.4561">&#1082;&#1088;&#1080;&#1090;&#1080;&#1095;&#1077;&#1089;&#1082;&#1080;&#1093; &#1072;&#1083;&#1077;&#1088;&#1090;&#1072;&#1093;</text></g><!--link qa_engineers to teamcity--><g id="link_qa_engineers_teamcity"><path codeLine="122" d="M607.69,323.8994 C677.58,321.6394 780.2531,318.3233 854.4831,315.9233 " fill="none" id="qa_engineers-to-teamcity" style="stroke:#181818;stroke-width:1.0;"/><polygon fill="#181818" points="860.48,315.7294,851.3554,312.0223,855.4826,315.891,851.614,320.0181,860.48,315.7294" style="stroke:#181818;stroke-width:1.0;"/><text fill="#000000" font-family="sans-serif" font-size="13" lengthAdjust="spacing" textLength="116" x="684" y="298.6045">&#1056;&#1091;&#1095;&#1085;&#1086;&#1081; &#1086;&#1090;&#1082;&#1072;&#1090; &#1095;&#1077;&#1088;&#1077;&#1079;</text><text fill="#000000" font-family="sans-serif" font-size="13" lengthAdjust="spacing" textLength="122" x="681" y="314.9561">TeamCity &#1080;&#1085;&#1090;&#1077;&#1088;&#1092;&#1077;&#1081;&#1089;</text></g><!--link harbor to developer_laptop--><g id="link_harbor_developer_laptop"><path codeLine="124" d="M1437.13,271.5594 C1502.99,244.3694 1583.174,211.259 1649.084,184.049 " fill="none" id="harbor-to-developer_laptop" style="stroke:#181818;stroke-width:1.0;"/><polygon fill="#181818" points="1654.63,181.7594,1644.7847,181.4964,1650.0084,183.6674,1647.8374,188.8911,1654.63,181.7594" style="stroke:#181818;stroke-width:1.0;"/><text fill="#000000" font-family="sans-serif" font-size="13" lengthAdjust="spacing" textLength="100" x="1496" y="181.6045">Pull &#1086;&#1073;&#1088;&#1072;&#1079;&#1086;&#1074; &#1076;&#1083;&#1103;</text><text fill="#000000" font-family="sans-serif" font-size="13" lengthAdjust="spacing" textLength="132" x="1480" y="197.9561">&#1083;&#1086;&#1082;&#1072;&#1083;&#1100;&#1085;&#1086;&#1081; &#1088;&#1072;&#1079;&#1088;&#1072;&#1073;&#1086;&#1090;&#1082;&#1080;</text></g><!--link prod_env to prod_env--><g id="link_prod_env_prod_env"><path codeLine="125" d="M104.53,815.0794 C106.54,798.0594 119.19,785.1094 142.5,785.1094 C165.81,785.1094 177.7563,792.1008 179.7663,809.1208 " fill="none" id="prod_env-to-prod_env" style="stroke:#181818;stroke-width:1.0;"/><polygon fill="#181818" points="180.47,815.0794,183.3869,805.6724,179.8836,810.1139,175.4421,806.6106,180.47,815.0794" style="stroke:#181818;stroke-width:1.0;"/><text fill="#000000" font-family="sans-serif" font-size="13" lengthAdjust="spacing" textLength="4" x="140.5" y="760.6045">&#160;</text><text fill="#000000" font-family="sans-serif" font-size="13" lengthAdjust="spacing" textLength="163" x="61" y="776.9561">Health checks &#1080; self-healing</text></g><!--SRC=[bLTRRnj557xVNp7oGnyYqXPQNgggKabGYqf5ISiJgQArCx5NMU-QtNMa2Y75lT1AARIWIg22A8dW4Scvk5qdjVCNPly2luJld9dPYxU144lnxbpE-Sutvtndd7Y9ByLDrmiI6RX1Iuf5sVF3UrqP96BHSzkHsnNpGcshD1jazzL8lLL3aJrGnzcc6gezTOIX2IQV2Nh5YgawLaDC7kBfhUFBjKGaeOYyTYSHgruaMuaN1awyxWKzbum7uQgCPKzSE5yQZDnWdGOlddUSdjjQTzjID1RbXlJ37aFxEDZmeZ2WvuRusX5iHgpg5J9QyTrU4lR4bvWHOcvElIGq0Fqq-vwYo3O5ut_3_tVLDBkVFLOfG0_dvdYF-WKxyAgEigS8S8W0PtVGj5wR2ZPA1AMOduAN8R6YHfY_wtpZE0ol3RBTvWe_4xAvkMjUygdRP9VgJxOyqNog4RaRWSkfUWEZu1Nl65PxjFP72Y4RO20LpFG1eDmjSRNmoRc5HN7BwqdV2sI9eaIwtPQNtCkfkOE11GoOkFL6c8O3X87_EiHNm3O6d2F-dcHRj6QNKHsgbCEqBZfkr0oZtC5r_ReasrwSHDRFOjXQbyMeThBDZ4zcIKI-PSz0mnvUtiAbJiInvJOF-ewCPpBZykKb99mRj7rvvKgPX3XPaS56N2J8ZZa_kCssu99E7nG_KAzjWXlWy_ZZXxytTuJw7T0UOtvAA4_E0RFwkQaGr10lUqmRYB_IxcohM7yI7-fdzKE5ygzSXDF6ISkeYEdpgyXCxD0HKC9iSGp5DhUVX2j4Hea8Wx60O-B-8l2IzzWWixzFsPfzY_SfZ4-8CritPWdvgwH_dE2KY7QJ_BVflKQq6h53GpFJy0U7OKlnFwZc7Q_Cy8ZJSwXhP98zn9fzd9Y5FgxKpAqeNEspF9qgYNfOdaT3yHJx3MKt-aqP1H84YmM_7oSogcVGKkYZGjkGBYkx-TH7Vb-UknP96GYrpoT28Krq0MHFJvDMOs65AhjVAvUR8OuqZCZx6V5PCvRHXjlqV6Z1lyNSbKb7zkDor6R8AkUsrWK1F2C09Tawr3E_Sh8KQZPH-vLyHBTPSmCtjtrDlrl3Bn364oCw1wPE88KfHFa1fGSzwPEbTbJrNZXPzvfb7pVurRfuhXEDB0byJObubboMm2brGNKeI9Rjz11Thb9JlemIujGwk6e7Rjz32dGBJoTh0KEW0h9gS4VwabgnFSDQevkVlr9fBvT40w-Y5NQx-3eZUlsuqt3AAsX7tWomNEqmL_luK7i4pIb0eAyq72TVDxlf_RFvSHTrXZtBmGUO-Gbn7AFSY3AIZw9imUboSE6iBLGYUIAOTYCTUiN56VEcQM1oLpTZlUp3iwI89-fIILeRrL1Cfq8Wjy3FIUQpWT2cwQofuUxbtNSCSemHJOtjAvVeka8LNRD62LOXGaCSSBi_q12j5R9PaNOwfzEq7BXXd3gL3snHpDekwJzPBfzNVfkhvMVs29Hi6gh9-w0WEtjK2OrJf-omQ07aJn_-0VVrryMzXm0SmyWJQz5UDAQ4Y-XZCmsdi5QplHmKdsh_qDtzkD8WqalB0IlfotUsYTJCrdFCpkX8KhwZK4GfhpFzIiirkAZYpVi7uDQx06jCzXtiu4mOzLX4M1Nsangh9LKcMlz2GntmTWX8HGSRTGYdtPYZ_L_xE0ynf-ziKzpY9ZeFdP89rYwZ_6Jk1MUnEQW3iFXCS8hKL5wbCxYCj9EHt-3F_aPXPSh579YE6HsDsBGRDsOHvJfUqqRSVGk1jXQf8PG29wb0bBcHcjfQ-S_Riyv991HTXpY1AZLNTZdC7ZMSYYxKp1SYKRu22BP8jVjcER0NVr6wi3saUtKsgAfQhTcmNlh-ZBIPiq80HvMVJWJX7J-TqdfEhHRLUrswVj8HhOvihSVq0okM_jfy1wDWi-7y0m00]--></g></svg>