<?xml version="1.0" encoding="us-ascii" standalone="no"?><svg xmlns="http://www.w3.org/2000/svg" xmlns:xlink="http://www.w3.org/1999/xlink" contentStyleType="text/css" height="937px" preserveAspectRatio="none" style="width:1890px;height:937px;background:#FFFFFF;" version="1.1" viewBox="0 0 1890 937" width="1890px" zoomAndPan="magnify"><defs/><g><text fill="#000000" font-family="sans-serif" font-size="14" font-weight="bold" lengthAdjust="spacing" textLength="489" x="693.75" y="24.5332">Maintenance Deployment Diagram - &#1057;&#1080;&#1089;&#1090;&#1077;&#1084;&#1072; &#1091;&#1087;&#1088;&#1072;&#1074;&#1083;&#1077;&#1085;&#1080;&#1103; &#1072;&#1074;&#1090;&#1086;&#1087;&#1072;&#1088;&#1082;&#1086;&#1084;</text><!--cluster Development Environment--><g id="cluster_Development Environment"><path d="M1631,62.1094 L1820,62.1094 A3.75,3.75 0 0 1 1822.5,64.6094 L1829.5,85.7188 L1881,85.7188 A2.5,2.5 0 0 1 1883.5,88.2188 L1883.5,195.6094 A2.5,2.5 0 0 1 1881,198.1094 L1631,198.1094 A2.5,2.5 0 0 1 1628.5,195.6094 L1628.5,64.6094 A2.5,2.5 0 0 1 1631,62.1094 " fill="none" style="stroke:#000000;stroke-width:1.5;"/><line style="stroke:#000000;stroke-width:1.5;" x1="1628.5" x2="1829.5" y1="85.7188" y2="85.7188"/><text fill="#000000" font-family="sans-serif" font-size="14" font-weight="bold" lengthAdjust="spacing" textLength="188" x="1632.5" y="78.6426">Development Environment</text></g><!--cluster CI/CD Pipeline--><g id="cluster_CI/CD Pipeline"><path d="M846.5,124.1094 L946.5,124.1094 A3.75,3.75 0 0 1 949,126.6094 L956,147.7188 L1460,147.7188 A2.5,2.5 0 0 1 1462.5,150.2188 L1462.5,368.6094 A2.5,2.5 0 0 1 1460,371.1094 L846.5,371.1094 A2.5,2.5 0 0 1 844,368.6094 L844,126.6094 A2.5,2.5 0 0 1 846.5,124.1094 " fill="none" style="stroke:#000000;stroke-width:1.5;"/><line style="stroke:#000000;stroke-width:1.5;" x1="844" x2="956" y1="147.7188" y2="147.7188"/><text fill="#000000" font-family="sans-serif" font-size="14" font-weight="bold" lengthAdjust="spacing" textLength="99" x="848" y="140.6426">CI/CD Pipeline</text></g><!--cluster Test Environment--><g id="cluster_Test Environment"><rect fill="none" height="214" rx="2.5" ry="2.5" style="stroke:#181818;stroke-width:1.0;" width="621" x="24.5" y="152.1094"/><text fill="#000000" font-family="sans-serif" font-size="14" font-weight="bold" lengthAdjust="spacing" textLength="124" x="273" y="168.6426">Test Environment</text></g><!--cluster Production Environment--><g id="cluster_Production Environment"><rect fill="none" height="222" rx="2.5" ry="2.5" style="stroke:#181818;stroke-width:1.0;" width="233" x="26" y="709.1094"/><text fill="#000000" font-family="sans-serif" font-size="14" font-weight="bold" lengthAdjust="spacing" textLength="171" x="57" y="725.6426">Production Environment</text></g><!--cluster Monitoring & Observability--><g id="cluster_Monitoring &amp; Observability"><rect fill="none" height="249" rx="2.5" ry="2.5" style="stroke:#181818;stroke-width:1.0;" width="607" x="451.5" y="627.1094"/><text fill="#000000" font-family="sans-serif" font-size="14" font-weight="bold" lengthAdjust="spacing" textLength="188" x="661" y="643.6426">Monitoring &amp; Observability</text></g><!--entity developer_laptop--><g id="elem_developer_laptop"><polygon fill="#F1F1F1" points="1644.5,108.6094,1654.5,98.6094,1867.5,98.6094,1867.5,171.4375,1857.5,181.4375,1644.5,181.4375,1644.5,108.6094" style="stroke:#181818;stroke-width:0.5;"/><line style="stroke:#181818;stroke-width:0.5;" x1="1857.5" x2="1867.5" y1="108.6094" y2="98.6094"/><line style="stroke:#181818;stroke-width:0.5;" x1="1644.5" x2="1857.5" y1="108.6094" y2="108.6094"/><line style="stroke:#181818;stroke-width:0.5;" x1="1857.5" x2="1857.5" y1="108.6094" y2="181.4375"/><text fill="#000000" font-family="sans-serif" font-size="14" font-weight="bold" lengthAdjust="spacing" textLength="183" x="1659.5" y="133.1426">&#1050;&#1086;&#1084;&#1087;&#1100;&#1102;&#1090;&#1077;&#1088; &#1088;&#1072;&#1079;&#1088;&#1072;&#1073;&#1086;&#1090;&#1095;&#1080;&#1082;&#1072;</text><text fill="#000000" font-family="sans-serif" font-size="14" lengthAdjust="spacing" textLength="150" x="1659.5" y="150.752">&#1051;&#1086;&#1082;&#1072;&#1083;&#1100;&#1085;&#1072;&#1103; &#1088;&#1072;&#1079;&#1088;&#1072;&#1073;&#1086;&#1090;&#1082;&#1072;</text><text fill="#000000" font-family="sans-serif" font-size="14" lengthAdjust="spacing" textLength="104" x="1659.5" y="168.3613">&#1080; &#1090;&#1077;&#1089;&#1090;&#1080;&#1088;&#1086;&#1074;&#1072;&#1085;&#1080;&#1077;</text></g><!--entity teamcity--><g id="elem_teamcity"><polygon fill="#F1F1F1" points="860,281.6094,870,271.6094,1024,271.6094,1024,344.4375,1014,354.4375,860,354.4375,860,281.6094" style="stroke:#181818;stroke-width:0.5;"/><line style="stroke:#181818;stroke-width:0.5;" x1="1014" x2="1024" y1="281.6094" y2="271.6094"/><line style="stroke:#181818;stroke-width:0.5;" x1="860" x2="1014" y1="281.6094" y2="281.6094"/><line style="stroke:#181818;stroke-width:0.5;" x1="1014" x2="1014" y1="281.6094" y2="354.4375"/><text fill="#000000" font-family="sans-serif" font-size="14" font-weight="bold" lengthAdjust="spacing" textLength="63" x="875" y="306.1426">TeamCity</text><text fill="#000000" font-family="sans-serif" font-size="14" lengthAdjust="spacing" textLength="87" x="875" y="323.752">CI/CD &#1089;&#1077;&#1088;&#1074;&#1077;&#1088;</text><text fill="#000000" font-family="sans-serif" font-size="14" lengthAdjust="spacing" textLength="124" x="875" y="341.3613">&#1055;&#1072;&#1081;&#1087;&#1083;&#1072;&#1081;&#1085;&#1099; &#1089;&#1073;&#1086;&#1088;&#1082;&#1080;</text></g><!--entity harbor--><g id="elem_harbor"><polygon fill="#F1F1F1" points="1223.5,281.6094,1233.5,271.6094,1446.5,271.6094,1446.5,344.4375,1436.5,354.4375,1223.5,354.4375,1223.5,281.6094" style="stroke:#181818;stroke-width:0.5;"/><line style="stroke:#181818;stroke-width:0.5;" x1="1436.5" x2="1446.5" y1="281.6094" y2="271.6094"/><line style="stroke:#181818;stroke-width:0.5;" x1="1223.5" x2="1436.5" y1="281.6094" y2="281.6094"/><line style="stroke:#181818;stroke-width:0.5;" x1="1436.5" x2="1436.5" y1="281.6094" y2="354.4375"/><text fill="#000000" font-family="sans-serif" font-size="14" font-weight="bold" lengthAdjust="spacing" textLength="110" x="1238.5" y="306.1426">Harbor Registry</text><text fill="#000000" font-family="sans-serif" font-size="14" lengthAdjust="spacing" textLength="101" x="1238.5" y="323.752">Docker Registry</text><text fill="#000000" font-family="sans-serif" font-size="14" lengthAdjust="spacing" textLength="183" x="1238.5" y="341.3613">&#1057;&#1082;&#1072;&#1085;&#1080;&#1088;&#1086;&#1074;&#1072;&#1085;&#1080;&#1077; &#1091;&#1103;&#1079;&#1074;&#1080;&#1084;&#1086;&#1089;&#1090;&#1077;&#1081;</text></g><!--entity test_envs--><g id="elem_test_envs"><polygon fill="#F1F1F1" points="40.5,260.1094,50.5,250.1094,244.5,250.1094,244.5,340.5469,234.5,350.5469,40.5,350.5469,40.5,260.1094" style="stroke:#181818;stroke-width:0.5;"/><line style="stroke:#181818;stroke-width:0.5;" x1="234.5" x2="244.5" y1="260.1094" y2="250.1094"/><line style="stroke:#181818;stroke-width:0.5;" x1="40.5" x2="234.5" y1="260.1094" y2="260.1094"/><line style="stroke:#181818;stroke-width:0.5;" x1="234.5" x2="234.5" y1="260.1094" y2="350.5469"/><text fill="#000000" font-family="sans-serif" font-size="14" font-weight="bold" lengthAdjust="spacing" textLength="150" x="55.5" y="284.6426">&#1058;&#1077;&#1089;&#1090;&#1086;&#1074;&#1099;&#1077; &#1086;&#1082;&#1088;&#1091;&#1078;&#1077;&#1085;&#1080;&#1103;</text><text fill="#000000" font-family="sans-serif" font-size="14" lengthAdjust="spacing" textLength="156" x="55.5" y="302.252">&#8226; &#1056;&#1091;&#1095;&#1085;&#1086;&#1077; &#1090;&#1077;&#1089;&#1090;&#1080;&#1088;&#1086;&#1074;&#1072;&#1085;&#1080;&#1077;</text><text fill="#000000" font-family="sans-serif" font-size="14" lengthAdjust="spacing" textLength="164" x="55.5" y="319.8613">&#8226; &#1040;&#1074;&#1090;&#1086;&#1084;&#1072;&#1090;&#1080;&#1095;&#1077;&#1089;&#1082;&#1080;&#1077; &#1090;&#1077;&#1089;&#1090;&#1099;</text><text fill="#000000" font-family="sans-serif" font-size="14" lengthAdjust="spacing" textLength="131" x="55.5" y="337.4707">&#8226; &#1057;&#1082;&#1072;&#1085;&#1080;&#1088;&#1086;&#1074;&#1072;&#1085;&#1080;&#1077; &#1048;&#1041;</text></g><!--entity qa_engineers--><g id="elem_qa_engineers"><polygon fill="#F1F1F1" points="469,312.1094,479,302.1094,607,302.1094,607,339.7188,597,349.7188,469,349.7188,469,312.1094" style="stroke:#181818;stroke-width:0.5;"/><line style="stroke:#181818;stroke-width:0.5;" x1="597" x2="607" y1="312.1094" y2="302.1094"/><line style="stroke:#181818;stroke-width:0.5;" x1="469" x2="597" y1="312.1094" y2="312.1094"/><line style="stroke:#181818;stroke-width:0.5;" x1="597" x2="597" y1="312.1094" y2="349.7188"/><text fill="#000000" font-family="sans-serif" font-size="14" font-weight="bold" lengthAdjust="spacing" textLength="98" x="484" y="336.6426">QA &#1080;&#1085;&#1078;&#1077;&#1085;&#1077;&#1088;&#1099;</text></g><!--entity auto_tests--><g id="elem_auto_tests"><polygon fill="#F1F1F1" points="446.5,198.6094,456.5,188.6094,629.5,188.6094,629.5,261.4375,619.5,271.4375,446.5,271.4375,446.5,198.6094" style="stroke:#181818;stroke-width:0.5;"/><line style="stroke:#181818;stroke-width:0.5;" x1="619.5" x2="629.5" y1="198.6094" y2="188.6094"/><line style="stroke:#181818;stroke-width:0.5;" x1="446.5" x2="619.5" y1="198.6094" y2="198.6094"/><line style="stroke:#181818;stroke-width:0.5;" x1="619.5" x2="619.5" y1="198.6094" y2="271.4375"/><text fill="#000000" font-family="sans-serif" font-size="14" font-weight="bold" lengthAdjust="spacing" textLength="74" x="461.5" y="223.1426">&#1040;&#1074;&#1090;&#1086;&#1090;&#1077;&#1089;&#1090;&#1099;</text><text fill="#000000" font-family="sans-serif" font-size="14" lengthAdjust="spacing" textLength="143" x="461.5" y="240.752">Unit, &#1080;&#1085;&#1090;&#1077;&#1075;&#1088;&#1072;&#1094;&#1080;&#1086;&#1085;&#1085;&#1099;&#1077;</text><text fill="#000000" font-family="sans-serif" font-size="14" lengthAdjust="spacing" textLength="58" x="461.5" y="258.3613">&#1051;&#1080;&#1085;&#1090;&#1077;&#1088;&#1099;</text></g><!--entity prod_env--><g id="elem_prod_env"><polygon fill="#F1F1F1" points="42,817.1094,52,807.1094,243,807.1094,243,905.5469,233,915.5469,42,915.5469,42,817.1094" style="stroke:#181818;stroke-width:0.5;"/><line style="stroke:#181818;stroke-width:0.5;" x1="233" x2="243" y1="817.1094" y2="807.1094"/><line style="stroke:#181818;stroke-width:0.5;" x1="42" x2="233" y1="817.1094" y2="817.1094"/><line style="stroke:#181818;stroke-width:0.5;" x1="233" x2="233" y1="817.1094" y2="915.5469"/><text fill="#000000" font-family="sans-serif" font-size="14" font-weight="bold" lengthAdjust="spacing" textLength="77" x="57" y="841.6426">Production</text><text fill="#000000" font-family="sans-serif" font-size="14" lengthAdjust="spacing" textLength="122" x="57" y="859.252">Kubernetes Cluster</text><line style="stroke:#181818;stroke-width:1.0;" x1="42" x2="233" y1="862.3281" y2="862.3281"/><line style="stroke:#181818;stroke-width:1.0;" x1="233" x2="243" y1="862.3281" y2="852.3281"/><text fill="#000000" font-family="sans-serif" font-size="14" lengthAdjust="spacing" textLength="133" x="57" y="880.8613">&#8226; Rolling deployment</text><text fill="#000000" font-family="sans-serif" font-size="14" lengthAdjust="spacing" textLength="161" x="57" y="898.4707">&#8226; &#1040;&#1074;&#1090;&#1086;&#1084;&#1072;&#1090;&#1080;&#1095;&#1077;&#1089;&#1082;&#1080;&#1081; &#1086;&#1090;&#1082;&#1072;&#1090;</text></g><!--entity prometheus--><g id="elem_prometheus"><polygon fill="#F1F1F1" points="475.5,673.6094,485.5,663.6094,600.5,663.6094,600.5,736.4375,590.5,746.4375,475.5,746.4375,475.5,673.6094" style="stroke:#181818;stroke-width:0.5;"/><line style="stroke:#181818;stroke-width:0.5;" x1="590.5" x2="600.5" y1="673.6094" y2="663.6094"/><line style="stroke:#181818;stroke-width:0.5;" x1="475.5" x2="590.5" y1="673.6094" y2="673.6094"/><line style="stroke:#181818;stroke-width:0.5;" x1="590.5" x2="590.5" y1="673.6094" y2="746.4375"/><text fill="#000000" font-family="sans-serif" font-size="14" font-weight="bold" lengthAdjust="spacing" textLength="85" x="490.5" y="698.1426">Prometheus</text><text fill="#000000" font-family="sans-serif" font-size="14" lengthAdjust="spacing" textLength="85" x="490.5" y="715.752">&#1057;&#1073;&#1086;&#1088; &#1084;&#1077;&#1090;&#1088;&#1080;&#1082;</text><text fill="#000000" font-family="sans-serif" font-size="14" lengthAdjust="spacing" textLength="79" x="490.5" y="733.3613">&#1052;&#1086;&#1085;&#1080;&#1090;&#1086;&#1088;&#1080;&#1085;&#1075;</text></g><!--entity grafana--><g id="elem_grafana"><polygon fill="#F1F1F1" points="850,786.6094,860,776.6094,1034,776.6094,1034,849.4375,1024,859.4375,850,859.4375,850,786.6094" style="stroke:#181818;stroke-width:0.5;"/><line style="stroke:#181818;stroke-width:0.5;" x1="1024" x2="1034" y1="786.6094" y2="776.6094"/><line style="stroke:#181818;stroke-width:0.5;" x1="850" x2="1024" y1="786.6094" y2="786.6094"/><line style="stroke:#181818;stroke-width:0.5;" x1="1024" x2="1024" y1="786.6094" y2="859.4375"/><text fill="#000000" font-family="sans-serif" font-size="14" font-weight="bold" lengthAdjust="spacing" textLength="55" x="865" y="811.1426">Grafana</text><text fill="#000000" font-family="sans-serif" font-size="14" lengthAdjust="spacing" textLength="70" x="865" y="828.752">&#1044;&#1072;&#1096;&#1073;&#1086;&#1088;&#1076;&#1099;</text><text fill="#000000" font-family="sans-serif" font-size="14" lengthAdjust="spacing" textLength="144" x="865" y="846.3613">&#1042;&#1080;&#1079;&#1091;&#1072;&#1083;&#1080;&#1079;&#1072;&#1094;&#1080;&#1103; &#1084;&#1077;&#1090;&#1088;&#1080;&#1082;</text></g><!--entity kibana--><g id="elem_kibana"><polygon fill="#F1F1F1" points="467.5,786.6094,477.5,776.6094,608.5,776.6094,608.5,849.4375,598.5,859.4375,467.5,859.4375,467.5,786.6094" style="stroke:#181818;stroke-width:0.5;"/><line style="stroke:#181818;stroke-width:0.5;" x1="598.5" x2="608.5" y1="786.6094" y2="776.6094"/><line style="stroke:#181818;stroke-width:0.5;" x1="467.5" x2="598.5" y1="786.6094" y2="786.6094"/><line style="stroke:#181818;stroke-width:0.5;" x1="598.5" x2="598.5" y1="786.6094" y2="859.4375"/><text fill="#000000" font-family="sans-serif" font-size="14" font-weight="bold" lengthAdjust="spacing" textLength="48" x="482.5" y="811.1426">Kibana</text><text fill="#000000" font-family="sans-serif" font-size="14" lengthAdjust="spacing" textLength="87" x="482.5" y="828.752">&#1040;&#1085;&#1072;&#1083;&#1080;&#1079; &#1083;&#1086;&#1075;&#1086;&#1074;</text><text fill="#000000" font-family="sans-serif" font-size="14" lengthAdjust="spacing" textLength="101" x="482.5" y="846.3613">&#1055;&#1086;&#1080;&#1089;&#1082; &#1087;&#1086; &#1083;&#1086;&#1075;&#1072;&#1084;</text></g><!--entity alerting--><g id="elem_alerting"><polygon fill="#F1F1F1" points="841.5,673.6094,851.5,663.6094,1042.5,663.6094,1042.5,736.4375,1032.5,746.4375,841.5,746.4375,841.5,673.6094" style="stroke:#181818;stroke-width:0.5;"/><line style="stroke:#181818;stroke-width:0.5;" x1="1032.5" x2="1042.5" y1="673.6094" y2="663.6094"/><line style="stroke:#181818;stroke-width:0.5;" x1="841.5" x2="1032.5" y1="673.6094" y2="673.6094"/><line style="stroke:#181818;stroke-width:0.5;" x1="1032.5" x2="1032.5" y1="673.6094" y2="746.4375"/><text fill="#000000" font-family="sans-serif" font-size="14" font-weight="bold" lengthAdjust="spacing" textLength="109" x="856.5" y="698.1426">Alerting System</text><text fill="#000000" font-family="sans-serif" font-size="14" lengthAdjust="spacing" textLength="161" x="856.5" y="715.752">&#1040;&#1074;&#1090;&#1086;&#1084;&#1072;&#1090;&#1080;&#1095;&#1077;&#1089;&#1082;&#1080;&#1077; &#1072;&#1083;&#1077;&#1088;&#1090;&#1099;</text><text fill="#000000" font-family="sans-serif" font-size="14" lengthAdjust="spacing" textLength="60" x="856.5" y="733.3613">Telegram</text></g><!--entity gitlab_node--><g id="elem_gitlab_node"><polygon fill="#F1F1F1" points="438,54.6094,448,44.6094,638,44.6094,638,117.4375,628,127.4375,438,127.4375,438,54.6094" style="stroke:#181818;stroke-width:0.5;"/><line style="stroke:#181818;stroke-width:0.5;" x1="628" x2="638" y1="54.6094" y2="44.6094"/><line style="stroke:#181818;stroke-width:0.5;" x1="438" x2="628" y1="54.6094" y2="54.6094"/><line style="stroke:#181818;stroke-width:0.5;" x1="628" x2="628" y1="54.6094" y2="127.4375"/><text fill="#000000" font-family="sans-serif" font-size="14" font-weight="bold" lengthAdjust="spacing" textLength="45" x="453" y="79.1426">GitLab</text><text fill="#000000" font-family="sans-serif" font-size="14" lengthAdjust="spacing" textLength="160" x="453" y="96.752">&#1061;&#1088;&#1072;&#1085;&#1077;&#1085;&#1080;&#1077; &#1088;&#1077;&#1087;&#1086;&#1079;&#1080;&#1090;&#1086;&#1088;&#1080;&#1077;&#1074;</text><text fill="#000000" font-family="sans-serif" font-size="14" lengthAdjust="spacing" textLength="82" x="453" y="114.3613">&#1042;&#1077;&#1088;&#1089;&#1080;&#1080; &#1082;&#1086;&#1076;&#1072;</text></g><!--entity stage_env--><g id="elem_stage_env"><polygon fill="#F1F1F1" points="30.5,612.6094,40.5,602.6094,254.5,602.6094,254.5,675.4375,244.5,685.4375,30.5,685.4375,30.5,612.6094" style="stroke:#181818;stroke-width:0.5;"/><line style="stroke:#181818;stroke-width:0.5;" x1="244.5" x2="254.5" y1="612.6094" y2="602.6094"/><line style="stroke:#181818;stroke-width:0.5;" x1="30.5" x2="244.5" y1="612.6094" y2="612.6094"/><line style="stroke:#181818;stroke-width:0.5;" x1="244.5" x2="244.5" y1="612.6094" y2="685.4375"/><text fill="#000000" font-family="sans-serif" font-size="14" font-weight="bold" lengthAdjust="spacing" textLength="121" x="45.5" y="637.1426">Stage &#1086;&#1082;&#1088;&#1091;&#1078;&#1077;&#1085;&#1080;&#1077;</text><text fill="#000000" font-family="sans-serif" font-size="14" lengthAdjust="spacing" textLength="184" x="45.5" y="654.752">&#8226; &#1060;&#1080;&#1085;&#1072;&#1083;&#1100;&#1085;&#1086;&#1077; &#1090;&#1077;&#1089;&#1090;&#1080;&#1088;&#1086;&#1074;&#1072;&#1085;&#1080;&#1077;</text><text fill="#000000" font-family="sans-serif" font-size="14" lengthAdjust="spacing" textLength="173" x="45.5" y="672.3613">&#8226; &#1055;&#1088;&#1086;&#1074;&#1077;&#1088;&#1082;&#1072; &#1082;&#1086;&#1085;&#1092;&#1080;&#1075;&#1091;&#1088;&#1072;&#1094;&#1080;&#1081;</text></g><!--link developer_laptop to gitlab_node--><g id="link_developer_laptop_gitlab_node"><path codeLine="95" d="M1644.46,135.1994 C1409.37,124.7594 868.9741,100.7656 644.2441,90.7856 " fill="none" id="developer_laptop-to-gitlab_node" style="stroke:#181818;stroke-width:1.0;"/><polygon fill="#181818" points="638.25,90.5194,647.0637,94.9147,643.2451,90.7412,647.4186,86.9226,638.25,90.5194" style="stroke:#181818;stroke-width:1.0;"/><text fill="#000000" font-family="sans-serif" font-size="13" lengthAdjust="spacing" textLength="106" x="1086" y="106.6045">git commit &amp; push</text></g><!--link gitlab_node to teamcity--><g id="link_gitlab_node_teamcity"><path codeLine="96" d="M612.73,127.7494 C685.15,168.6394 789.7955,227.7289 862.1655,268.5989 " fill="none" id="gitlab_node-to-teamcity" style="stroke:#181818;stroke-width:1.0;"/><polygon fill="#181818" points="867.39,271.5494,861.5203,263.6407,863.0363,269.0907,857.5864,270.6067,867.39,271.5494" style="stroke:#181818;stroke-width:1.0;"/><text fill="#000000" font-family="sans-serif" font-size="13" lengthAdjust="spacing" textLength="85" x="699" y="156.6045">&#1058;&#1088;&#1080;&#1075;&#1075;&#1077;&#1088; &#1073;&#1080;&#1083;&#1076;&#1072;</text></g><!--link teamcity to teamcity--><g id="link_teamcity_teamcity"><path codeLine="98" d="M905.43,271.6094 C903.59,255.2594 915.78,241.6094 942,241.6094 C968.22,241.6094 981.081,249.297 979.241,265.647 " fill="none" id="teamcity-to-teamcity" style="stroke:#181818;stroke-width:1.0;"/><polygon fill="#181818" points="978.57,271.6094,983.5514,263.1132,979.1292,266.6407,975.6016,262.2185,978.57,271.6094" style="stroke:#181818;stroke-width:1.0;"/><text fill="#000000" font-family="sans-serif" font-size="13" lengthAdjust="spacing" textLength="90" x="897" y="168.1045">1. &#1057;&#1073;&#1086;&#1088;&#1082;&#1072; &#1082;&#1086;&#1076;&#1072;</text><text fill="#000000" font-family="sans-serif" font-size="13" lengthAdjust="spacing" textLength="126" x="879" y="184.4561">2. &#1047;&#1072;&#1087;&#1091;&#1089;&#1082; Unit &#1090;&#1077;&#1089;&#1090;&#1086;&#1074;</text><text fill="#000000" font-family="sans-serif" font-size="13" lengthAdjust="spacing" textLength="115" x="884.5" y="200.8076">3. &#1055;&#1088;&#1086;&#1075;&#1086;&#1085; &#1083;&#1080;&#1085;&#1090;&#1077;&#1088;&#1086;&#1074;</text><text fill="#000000" font-family="sans-serif" font-size="13" lengthAdjust="spacing" textLength="155" x="864.5" y="217.1592">4. &#1057;&#1073;&#1086;&#1088;&#1082;&#1072; Docker &#1086;&#1073;&#1088;&#1072;&#1079;&#1086;&#1074;</text><text fill="#000000" font-family="sans-serif" font-size="13" lengthAdjust="spacing" textLength="150" x="867" y="233.5107">5. &#1048;&#1085;&#1090;&#1077;&#1075;&#1088;&#1072;&#1094;&#1080;&#1086;&#1085;&#1085;&#1099;&#1077; &#1090;&#1077;&#1089;&#1090;&#1099;</text></g><!--link teamcity to harbor--><g id="link_teamcity_harbor"><path codeLine="99" d="M1024.02,313.1094 C1081.73,313.1094 1153.99,313.1094 1217.43,313.1094 " fill="none" id="teamcity-to-harbor" style="stroke:#181818;stroke-width:1.0;"/><polygon fill="#181818" points="1223.43,313.1094,1214.43,309.1094,1218.43,313.1094,1214.43,317.1094,1223.43,313.1094" style="stroke:#181818;stroke-width:1.0;"/><text fill="#000000" font-family="sans-serif" font-size="13" lengthAdjust="spacing" textLength="127" x="1075.5" y="293.6045">Push Docker &#1086;&#1073;&#1088;&#1072;&#1079;&#1086;&#1074;</text><text fill="#000000" font-family="sans-serif" font-size="13" lengthAdjust="spacing" textLength="97" x="1090.5" y="309.9561">&#1089; &#1090;&#1077;&#1075;&#1072;&#1084;&#1080; &#1074;&#1077;&#1088;&#1089;&#1080;&#1081;</text></g><!--link harbor to test_envs--><g id="link_harbor_test_envs"><path codeLine="101" d="M1223.21,341.6594 C1175.36,352.5894 1118.53,363.7194 1066.5,369.1094 C788.65,397.8794 715.54,396.7894 438,365.1094 C372.84,357.6694 306.7709,343.4043 250.3209,329.2943 " fill="none" id="harbor-to-test_envs" style="stroke:#181818;stroke-width:1.0;"/><polygon fill="#181818" points="244.5,327.8394,252.2614,333.9024,249.3508,329.0519,254.2014,326.1412,244.5,327.8394" style="stroke:#181818;stroke-width:1.0;"/><text fill="#000000" font-family="sans-serif" font-size="13" lengthAdjust="spacing" textLength="92" x="695.5" y="367.6045">Deploy &#1086;&#1073;&#1088;&#1072;&#1079;&#1086;&#1074;</text><text fill="#000000" font-family="sans-serif" font-size="13" lengthAdjust="spacing" textLength="114" x="684.5" y="383.9561">&#1085;&#1072; &#1090;&#1077;&#1089;&#1090;&#1086;&#1074;&#1099;&#1077; &#1089;&#1088;&#1077;&#1076;&#1099;</text></g><!--link test_envs to qa_engineers--><g id="link_test_envs_qa_engineers"><path codeLine="102" d="M244.58,306.7894 C314.94,311.4394 400.9031,317.1134 462.7431,321.2034 " fill="none" id="test_envs-to-qa_engineers" style="stroke:#181818;stroke-width:1.0;"/><polygon fill="#181818" points="468.73,321.5994,460.0136,317.0141,463.7409,321.2694,459.4856,324.9967,468.73,321.5994" style="stroke:#181818;stroke-width:1.0;"/><text fill="#000000" font-family="sans-serif" font-size="13" lengthAdjust="spacing" textLength="128" x="282.5" y="290.6045">&#1056;&#1091;&#1095;&#1085;&#1086;&#1077; &#1090;&#1077;&#1089;&#1090;&#1080;&#1088;&#1086;&#1074;&#1072;&#1085;&#1080;&#1077;</text><text fill="#000000" font-family="sans-serif" font-size="13" lengthAdjust="spacing" textLength="75" x="309" y="306.9561">&#1080; &#1074;&#1072;&#1083;&#1080;&#1076;&#1072;&#1094;&#1080;&#1103;</text></g><!--link test_envs to auto_tests--><g id="link_test_envs_auto_tests"><path codeLine="103" d="M244.57,276.2694 C254.83,274.0894 265.11,271.9894 275,270.1094 C331.73,259.3194 389.86,250.3459 440.45,243.1359 " fill="none" id="test_envs-to-auto_tests" style="stroke:#181818;stroke-width:1.0;"/><polygon fill="#181818" points="446.39,242.2894,436.9157,239.5992,441.44,242.9948,438.0444,247.5192,446.39,242.2894" style="stroke:#181818;stroke-width:1.0;"/><text fill="#000000" font-family="sans-serif" font-size="13" lengthAdjust="spacing" textLength="141" x="276" y="227.6045">&#1047;&#1072;&#1087;&#1091;&#1089;&#1082; &#1072;&#1074;&#1090;&#1086;&#1084;&#1072;&#1090;&#1080;&#1095;&#1077;&#1089;&#1082;&#1080;&#1093;</text><text fill="#000000" font-family="sans-serif" font-size="13" lengthAdjust="spacing" textLength="133" x="280" y="243.9561">&#1088;&#1077;&#1075;&#1088;&#1077;&#1089;&#1089;&#1080;&#1086;&#1085;&#1085;&#1099;&#1093; &#1090;&#1077;&#1089;&#1090;&#1086;&#1074;</text></g><!--link test_envs to stage_env--><g id="link_test_envs_stage_env"><path codeLine="105" d="M142.5,350.2794 C142.5,418.3694 142.5,532.7994 142.5,596.2694 " fill="none" id="test_envs-to-stage_env" style="stroke:#181818;stroke-width:1.0;"/><polygon fill="#181818" points="142.5,602.2694,146.5,593.2694,142.5,597.2694,138.5,593.2694,142.5,602.2694" style="stroke:#181818;stroke-width:1.0;"/><text fill="#000000" font-family="sans-serif" font-size="13" lengthAdjust="spacing" textLength="247" x="7" y="481.8545">&#1055;&#1088;&#1086;&#1076;&#1074;&#1080;&#1078;&#1077;&#1085;&#1080;&#1077; &#1091;&#1089;&#1087;&#1077;&#1096;&#1085;&#1099;&#1093; &#1089;&#1073;&#1086;&#1088;&#1086;&#1082; &#1085;&#1072; stage</text></g><!--link stage_env to stage_env--><g id="link_stage_env_stage_env"><path codeLine="106" d="M104.44,602.6094 C102.52,586.2594 115.21,572.6094 142.5,572.6094 C169.79,572.6094 183.1798,580.3003 181.2598,596.6503 " fill="none" id="stage_env-to-stage_env" style="stroke:#181818;stroke-width:1.0;"/><polygon fill="#181818" points="180.56,602.6094,185.5824,594.1373,181.1431,597.6435,177.637,593.2043,180.56,602.6094" style="stroke:#181818;stroke-width:1.0;"/><text fill="#000000" font-family="sans-serif" font-size="13" lengthAdjust="spacing" textLength="4" x="140.5" y="417.1045">&#160;</text><text fill="#000000" font-family="sans-serif" font-size="13" lengthAdjust="spacing" textLength="4" x="140.5" y="433.4561">&#160;</text><text fill="#000000" font-family="sans-serif" font-size="13" lengthAdjust="spacing" textLength="4" x="140.5" y="449.8076">&#160;</text><text fill="#000000" font-family="sans-serif" font-size="13" lengthAdjust="spacing" textLength="4" x="140.5" y="466.1592">&#160;</text><text fill="#000000" font-family="sans-serif" font-size="13" lengthAdjust="spacing" textLength="4" x="140.5" y="482.5107">&#160;</text><text fill="#000000" font-family="sans-serif" font-size="13" lengthAdjust="spacing" textLength="4" x="140.5" y="498.8623">&#160;</text><text fill="#000000" font-family="sans-serif" font-size="13" lengthAdjust="spacing" textLength="132" x="76.5" y="515.2139">&#1060;&#1080;&#1085;&#1072;&#1083;&#1100;&#1085;&#1099;&#1077; &#1087;&#1088;&#1086;&#1074;&#1077;&#1088;&#1082;&#1080;:</text><text fill="#000000" font-family="sans-serif" font-size="13" lengthAdjust="spacing" textLength="97" x="94" y="531.5654">&#8226; &#1050;&#1086;&#1085;&#1092;&#1080;&#1075;&#1091;&#1088;&#1072;&#1094;&#1080;&#1080;</text><text fill="#000000" font-family="sans-serif" font-size="13" lengthAdjust="spacing" textLength="80" x="102.5" y="547.917">&#8226; &#1048;&#1085;&#1090;&#1077;&#1075;&#1088;&#1072;&#1094;&#1080;&#1080;</text><text fill="#000000" font-family="sans-serif" font-size="13" lengthAdjust="spacing" textLength="136" x="74.5" y="564.2686">&#8226; &#1055;&#1088;&#1086;&#1080;&#1079;&#1074;&#1086;&#1076;&#1080;&#1090;&#1077;&#1083;&#1100;&#1085;&#1086;&#1089;&#1090;&#1100;</text></g><!--link stage_env to prod_env--><g id="link_stage_env_prod_env"><path codeLine="108" d="M142.5,685.7094 C142.5,720.1594 142.5,763.3794 142.5,800.9094 " fill="none" id="stage_env-to-prod_env" style="stroke:#181818;stroke-width:1.0;"/><polygon fill="#181818" points="142.5,806.9094,146.5,797.9094,142.5,801.9094,138.5,797.9094,142.5,806.9094" style="stroke:#181818;stroke-width:1.0;"/><text fill="#000000" font-family="sans-serif" font-size="13" lengthAdjust="spacing" textLength="220" x="20.5" y="751.8545">Rolling deployment, &#1087;&#1086;&#1101;&#1090;&#1072;&#1087;&#1085;&#1099;&#1081; rollout</text></g><!--link test_envs to prometheus--><g id="link_test_envs_prometheus"><path codeLine="110" d="M227.66,350.2394 C242.83,362.7894 256.98,377.4994 267,394.1094 C278.17,412.6294 265.12,422.8694 275,442.1094 C323.06,535.7094 411.5809,613.2516 472.8909,659.7916 " fill="none" id="test_envs-to-prometheus" style="stroke:#181818;stroke-width:1.0;"/><polygon fill="#181818" points="477.67,663.4194,472.9199,654.7917,473.6874,660.3962,468.0829,661.1638,477.67,663.4194" style="stroke:#181818;stroke-width:1.0;"/><text fill="#000000" font-family="sans-serif" font-size="13" lengthAdjust="spacing" textLength="93" x="300" y="438.6045">&#1069;&#1082;&#1089;&#1087;&#1086;&#1088;&#1090; &#1084;&#1077;&#1090;&#1088;&#1080;&#1082;</text></g><!--link stage_env to prometheus--><g id="link_stage_env_prometheus"><path codeLine="111" d="M254.68,661.3494 C326.16,672.4294 410.4207,685.4909 469.3607,694.6209 " fill="none" id="stage_env-to-prometheus" style="stroke:#181818;stroke-width:1.0;"/><polygon fill="#181818" points="475.29,695.5394,467.0084,690.2088,470.3489,694.774,465.7838,698.1145,475.29,695.5394" style="stroke:#181818;stroke-width:1.0;"/><text fill="#000000" font-family="sans-serif" font-size="13" lengthAdjust="spacing" textLength="93" x="300" y="662.6045">&#1069;&#1082;&#1089;&#1087;&#1086;&#1088;&#1090; &#1084;&#1077;&#1090;&#1088;&#1080;&#1082;</text></g><!--link prod_env to prometheus--><g id="link_prod_env_prometheus"><path codeLine="112" d="M243.06,810.2894 C253.76,805.3094 264.55,800.4894 275,796.1094 C342.29,767.9294 415.9737,743.0524 469.5937,725.9524 " fill="none" id="prod_env-to-prometheus" style="stroke:#181818;stroke-width:1.0;"/><polygon fill="#181818" points="475.31,724.1294,465.5201,723.053,470.5464,725.6485,467.9508,730.6748,475.31,724.1294" style="stroke:#181818;stroke-width:1.0;"/><text fill="#000000" font-family="sans-serif" font-size="13" lengthAdjust="spacing" textLength="93" x="300" y="724.6045">&#1069;&#1082;&#1089;&#1087;&#1086;&#1088;&#1090; &#1084;&#1077;&#1090;&#1088;&#1080;&#1082;</text><text fill="#000000" font-family="sans-serif" font-size="13" lengthAdjust="spacing" textLength="72" x="310.5" y="740.9561">&#1080; &#1089;&#1086;&#1089;&#1090;&#1086;&#1103;&#1085;&#1080;&#1103;</text></g><!--link prometheus to grafana--><g id="link_prometheus_grafana"><path codeLine="114" d="M600.93,722.5194 C667.44,741.2194 768.0339,769.4857 844.0939,790.8657 " fill="none" id="prometheus-to-grafana" style="stroke:#181818;stroke-width:1.0;"/><polygon fill="#181818" points="849.87,792.4894,842.2882,786.2032,845.0565,791.1363,840.1234,793.9047,849.87,792.4894" style="stroke:#181818;stroke-width:1.0;"/><text fill="#000000" font-family="sans-serif" font-size="13" lengthAdjust="spacing" textLength="158" x="662.5" y="738.6045">&#1044;&#1072;&#1085;&#1085;&#1099;&#1077; &#1076;&#1083;&#1103; &#1074;&#1080;&#1079;&#1091;&#1072;&#1083;&#1080;&#1079;&#1072;&#1094;&#1080;&#1080;</text></g><!--link prod_env to kibana--><g id="link_prod_env_kibana"><path codeLine="115" d="M243.31,851.4994 C295.4,846.3394 360.17,839.6994 418,833.1094 C433.93,831.2894 445.0864,829.954 461.2364,827.934 " fill="none" id="prod_env-to-kibana" style="stroke:#181818;stroke-width:1.0;"/><polygon fill="#181818" points="467.19,827.1894,457.7631,824.3373,462.2287,827.8099,458.756,832.2754,467.19,827.1894" style="stroke:#181818;stroke-width:1.0;"/><text fill="#000000" font-family="sans-serif" font-size="13" lengthAdjust="spacing" textLength="93" x="300" y="813.6045">&#1054;&#1090;&#1087;&#1088;&#1072;&#1074;&#1082;&#1072; &#1083;&#1086;&#1075;&#1086;&#1074;</text><text fill="#000000" font-family="sans-serif" font-size="13" lengthAdjust="spacing" textLength="72" x="310.5" y="829.9561">&#1087;&#1088;&#1080;&#1083;&#1086;&#1078;&#1077;&#1085;&#1080;&#1081;</text></g><!--link prometheus to alerting--><g id="link_prometheus_alerting"><path codeLine="116" d="M600.93,705.1094 C665.02,705.1094 760.11,705.1094 835.44,705.1094 " fill="none" id="prometheus-to-alerting" style="stroke:#181818;stroke-width:1.0;"/><polygon fill="#181818" points="841.44,705.1094,832.44,701.1094,836.44,705.1094,832.44,709.1094,841.44,705.1094" style="stroke:#181818;stroke-width:1.0;"/><text fill="#000000" font-family="sans-serif" font-size="13" lengthAdjust="spacing" textLength="105" x="689" y="685.6045">&#1058;&#1088;&#1080;&#1075;&#1075;&#1077;&#1088;&#1099; &#1072;&#1083;&#1077;&#1088;&#1090;&#1086;&#1074;</text><text fill="#000000" font-family="sans-serif" font-size="13" lengthAdjust="spacing" textLength="75" x="704" y="701.9561">&#1087;&#1086; &#1084;&#1077;&#1090;&#1088;&#1080;&#1082;&#1072;&#1084;</text></g><!--link alerting to teamcity--><g id="link_alerting_teamcity"><path codeLine="118" d="M942,663.5294 C942,588.2594 942,436.2394 942,360.8494 " fill="none" id="alerting-to-teamcity" style="stroke:#181818;stroke-width:1.0;"/><polygon fill="#181818" points="942,354.8494,938,363.8494,942,359.8494,946,363.8494,942,354.8494" style="stroke:#181818;stroke-width:1.0;"/><text fill="#000000" font-family="sans-serif" font-size="13" lengthAdjust="spacing" textLength="83" x="880.5" y="506.6045">&#1040;&#1074;&#1090;&#1086;&#1086;&#1090;&#1082;&#1072;&#1090; &#1087;&#1088;&#1080;</text><text fill="#000000" font-family="sans-serif" font-size="13" lengthAdjust="spacing" textLength="124" x="860" y="522.9561">&#1082;&#1088;&#1080;&#1090;&#1080;&#1095;&#1077;&#1089;&#1082;&#1080;&#1093; &#1072;&#1083;&#1077;&#1088;&#1090;&#1072;&#1093;</text></g><!--link qa_engineers to teamcity--><g id="link_qa_engineers_teamcity"><path codeLine="119" d="M607.19,323.8994 C677.08,321.6394 779.7531,318.3233 853.9831,315.9233 " fill="none" id="qa_engineers-to-teamcity" style="stroke:#181818;stroke-width:1.0;"/><polygon fill="#181818" points="859.98,315.7294,850.8554,312.0223,854.9826,315.891,851.114,320.0181,859.98,315.7294" style="stroke:#181818;stroke-width:1.0;"/><text fill="#000000" font-family="sans-serif" font-size="13" lengthAdjust="spacing" textLength="116" x="683.5" y="298.6045">&#1056;&#1091;&#1095;&#1085;&#1086;&#1081; &#1086;&#1090;&#1082;&#1072;&#1090; &#1095;&#1077;&#1088;&#1077;&#1079;</text><text fill="#000000" font-family="sans-serif" font-size="13" lengthAdjust="spacing" textLength="122" x="680.5" y="314.9561">TeamCity &#1080;&#1085;&#1090;&#1077;&#1088;&#1092;&#1077;&#1081;&#1089;</text></g><!--link harbor to developer_laptop--><g id="link_harbor_developer_laptop"><path codeLine="121" d="M1436.63,271.5594 C1502.49,244.3694 1582.674,211.259 1648.584,184.049 " fill="none" id="harbor-to-developer_laptop" style="stroke:#181818;stroke-width:1.0;"/><polygon fill="#181818" points="1654.13,181.7594,1644.2847,181.4964,1649.5084,183.6674,1647.3374,188.8911,1654.13,181.7594" style="stroke:#181818;stroke-width:1.0;"/><text fill="#000000" font-family="sans-serif" font-size="13" lengthAdjust="spacing" textLength="100" x="1495.5" y="181.6045">Pull &#1086;&#1073;&#1088;&#1072;&#1079;&#1086;&#1074; &#1076;&#1083;&#1103;</text><text fill="#000000" font-family="sans-serif" font-size="13" lengthAdjust="spacing" textLength="132" x="1479.5" y="197.9561">&#1083;&#1086;&#1082;&#1072;&#1083;&#1100;&#1085;&#1086;&#1081; &#1088;&#1072;&#1079;&#1088;&#1072;&#1073;&#1086;&#1090;&#1082;&#1080;</text></g><!--link prod_env to prod_env--><g id="link_prod_env_prod_env"><path codeLine="122" d="M104.29,806.9794 C105.06,790.2494 117.8,777.1094 142.5,777.1094 C167.2,777.1094 179.6641,784.2557 180.4341,800.9857 " fill="none" id="prod_env-to-prod_env" style="stroke:#181818;stroke-width:1.0;"/><polygon fill="#181818" points="180.71,806.9794,184.292,797.805,180.4801,801.9847,176.3004,798.1728,180.71,806.9794" style="stroke:#181818;stroke-width:1.0;"/><text fill="#000000" font-family="sans-serif" font-size="13" lengthAdjust="spacing" textLength="4" x="140.5" y="752.6045">&#160;</text><text fill="#000000" font-family="sans-serif" font-size="13" lengthAdjust="spacing" textLength="163" x="61" y="768.9561">Health checks &#1080; self-healing</text></g><!--SRC=[bLTRRnD757xVNp7o0myHeRJG5uIGK591HL5fe4yDYjREn5vblUlkhYEXgbBCfI255beXjQ9LAL7xMCcvcAmJxFo5sR_GNzBld9dPYvVGD94IpyoPS_dEETyP9rxYIt7JzO941cxGac9HzlpmNbS6YLZqt7RaTiMyKAzLcWso-sgatggXo1weusnJ3TMkEiBM18VF12qXCLN7QeZ3Gtnww_XoBH59A2AltKd4gXV9LkA5WHElUq7F9UL1k2fZsHCNpfSs8pTOfysBvnsdvxRMtROKZKMv8Vsmnwvz4cnuKHZGvuRunX6iHgng2Hcj-6ul2NlYAvm8CJUdNf8tSFffzWD5aMqAzl-0_-weQNO_UwnIE3sSc-CxwbVSm58TPKyHu101pjwWOosR2bPA0AKudmAN8Q6YHZY_wtphEEnU6s2xpHN-J9xDpLtpai_S9fjKVx7cYSPJZSZS25XErG6K0bUiiQrsIVOd2Y4RO2CLZFG-NBbRmchXqmyM5iKjhoTzBv0bY1BfTbjUSY-7vWus5h1XujONeHe640R-wX1VmRSnt3dY_vDiYsHssAj3bNAOraJ7ZPfXb1kuhfTBikt5IMJjB8QjTLdiQYEl6V79B8Yej-mPODZ5uYrCwa8SMsppeE_8UAOoBbzUGi6vGTkNLwwKGOYJ5Hbin4M1R9lymMos1PEKVK3yGBsn1MuS_sTpMwW_uD5ZR4_9kPDJRwIVcyP0wx3OOxf0i9LkPrk5_4amg5_KZnMaltOHHHi9bb4HoXTNKP2ueHsdEjbYrujhRZy9LmY3Klp6ny8T4-wNWPUSPOKC-XuLQVOTrbCedn1KjbsC2DchL7sS83c4jgdvsxIkuQj6R93Z_vFzjwtt7nZpZLTcUyJbEDGzCSaUGcOFgR8-ZoizSYiAL_jCHwSgcXx4yp0eaEA-mUf6locZG09PiU3tuqH6l3sFdpovIw6FZco3gYpDdgPEni8IJdQ_LlOtG-GeZ4Zh6V5vCvRHXjlqVFJq-sBfogGZ-t4v6hDb6V2rxcy1VqQe2AAVGtto6sU_OAM9sgiK6AR6cXkukUvhUcqLlq0OJmnvx9l21wMb8DS7b7Rwf3D6OwLglJ2oxZNBDcxmqffuhWk8D0dycwezgWzBPLEQPkfG4BtQuo6cLQL9V1abXAarSDLktBw7r7OBIoStDxj07M7R-uxq9OrKcyFQm9gVlr8P4vT40qlH2hjT_3iZUlsuqt3A4dGZ9tM8gst6QW-_DEO0SmedC1yQZfFBpLxwy5oUxg9_S6Sv-0WdFoEEOxGHGKPyKBGZC5qEBfop3KWWJmJ3RhX0IroSKM_87uSxUgXgiO_F4SMTI3GbhcnKGp4J1u7S0ZudgSy6GgkcNDFWtCsdw1ZW62KQ6ZiVBj6pWpgrfeqAh0A4Td70OtjVksYraCuALrEUJZD3O8RzrAMyRvjYLdU9q4bpEL_vgwnMdzaZGB9fe2RhWmBix54bD2wTii62qycUJlu-p-StnVk573Y6aYTMetqmJCalWe_LD9n2MqttSb3yLkU2djB75U9FBoq7pAGltqd_gJcjrvWzqP6a_DQWY5AMCtE8I-yfiAZwcyy5k5jdzxDCCjdtK8IaiDjZ4K4ix2SrM4kqJBZ-ZH4vuEjWa0eHDke-dFPYxkx_kiU5Y3Fz-9hYEJRHXUYKL31v6UedTI-uZ4sczW7ZCy4rKgDvbSxuPRYTbFmEU_RB1bDJpkRmwPYzenrRT-F6h4SvaTV84O_OWg6jHfe8fS29An1bhgH6jvR_y_ciYn8LHGyShg1AqvLD3hD73QT233Nr1KkKtm22DLBp7Ym7zWKlIa-mX_H0pWPLMgjD6oPCtv_XDfCh171K-Gv4BhpZEr1QhwdLedslIzTFEgBLaQtrcBufnT9Vc-zW5sWsd7y1]--></g></svg>